<?xml version="1.0" encoding="UTF-8" standalone="no"?>
<!-- Created with Inkscape (http://www.inkscape.org/) -->

<svg
   width="64.16996mm"
   height="64.076172mm"
   viewBox="0 0 102.06435 101.91517"
   version="1.1"
   id="svg1"
   xmlns:xlink="http://www.w3.org/1999/xlink"
   xmlns="http://www.w3.org/2000/svg"
   xmlns:svg="http://www.w3.org/2000/svg">
  <defs
     id="defs1">
    <linearGradient
       id="linearGradient1">
      <stop
         style="stop-color:#f39208;stop-opacity:1;"
         offset="0.08606797"
         id="stop1" />
      <stop
         style="stop-color:#f3d008;stop-opacity:1;"
         offset="1"
         id="stop2" />
    </linearGradient>
    <filter
       style="color-interpolation-filters:sRGB"
       id="filter3"
       x="-0.0019137605"
       y="-0.0019262802"
       width="1.0038275"
       height="1.0038526">
      <feGaussianBlur
         stdDeviation="0.081075826"
         id="feGaussianBlur3" />
    </filter>
    <linearGradient
       xlink:href="#linearGradient1"
       id="linearGradient3"
       x1="71.317589"
       y1="97.420563"
       x2="49.903812"
       y2="15.56449"
       gradientUnits="userSpaceOnUse"
       gradientTransform="translate(0.10416969,-0.12064902)" />
  </defs>
  <rect
     style="fill:none;fill-opacity:1;fill-rule:evenodd;stroke:none;stroke-width:3.23832;stroke-linejoin:round;stroke-dasharray:none"
     id="rect1"
     width="101.50806"
     height="101.52661"
     x="0.32698947"
     y="-1.3877788e-17" />
  <path
     id="rect2"
     style="fill:url(#linearGradient3);fill-opacity:1;fill-rule:evenodd;stroke:none;stroke-width:0.318106;stroke-linejoin:round;stroke-dasharray:none;stroke-opacity:1;filter:url(#filter3)"
     d="m 29.152818,0.7062125 c -4.5125,0 -8.51009,0.8580785 -11.991958,2.5734627 -3.481868,1.7153842 -6.406432,4.116524 -8.7741023,7.2042158 -2.3398153,3.087691 -4.1226806,6.78378 -5.3482981,11.087835 -1.1977626,4.304055 -1.7967389,9.045334 -1.7967389,14.222676 0,5.270908 0.5294808,10.07401 1.5879687,14.409254 1.0584879,4.335243 2.6742353,8.046171 4.8469209,11.133863 1.8061717,2.534332 4.0031677,4.58799 6.5787277,6.176803 H 0.19458198 V 101.72058 H 101.86978 V 67.514322 H 84.633089 c 3.32242,-1.454208 6.15595,-3.508169 8.488071,-6.176803 2.5348,-2.931748 4.470717,-6.565192 5.807757,-10.900435 1.337033,-4.366433 2.005513,-9.434131 2.005513,-15.20406 0,-5.48923 -0.66848,-10.323654 -2.005513,-14.502954 C 97.61973,16.55077 95.753309,13.057455 93.32993,10.250463 90.90655,7.4122818 87.967923,5.2757383 84.513909,3.8410533 81.059897,2.4063684 77.20212,1.6892407 72.940314,1.6892407 H 55.934583 V 67.514322 H 42.814938 V 60.68244 c -2.172686,0.717343 -4.372524,1.356987 -6.60092,1.918385 -2.228395,0.53021 -4.58211,0.795628 -7.0612,0.795628 -3.286883,0 -6.156015,-0.608321 -8.60725,-1.824684 -2.451236,-1.216364 -4.498841,-2.994343 -6.142283,-5.333504 -1.643441,-2.33916 -2.882763,-5.208492 -3.718411,-8.608072 C 9.8770802,44.199424 9.4725272,40.284901 9.4725272,35.88728 c 0,-4.272866 0.4599856,-8.109083 1.3791988,-11.508663 0.947069,-3.399579 2.269948,-6.284573 3.9691,-8.654922 1.727006,-2.37035 3.802739,-4.17883 6.226119,-5.426382 2.42338,-1.2787409 5.125394,-1.9183845 8.105873,-1.9183845 2.618365,0 4.958016,0.3585638 7.019282,1.0759063 2.061265,0.7173422 3.969058,1.5754212 5.72392,2.5734622 L 45.154972,4.7295596 C 42.954431,3.4196298 40.489031,2.4222444 37.759246,1.7360907 35.029462,1.049937 32.161152,0.7062125 29.152818,0.7062125 Z m 34.553935,8.4214942 h 8.397658 c 3.259028,0 6.170351,0.5300149 8.733006,1.5904343 2.562655,1.02923 4.721124,2.620097 6.475986,4.772125 1.754861,2.152028 3.091805,4.896071 4.011018,8.233273 0.919213,3.306013 1.379198,7.236198 1.379198,11.789763 0,8.951187 -1.866424,15.70372 -5.598986,20.257285 -3.732563,4.553565 -9.275582,6.830238 -16.629287,6.830238 H 63.706753 Z M 52.830154,71.714384 c 0.426404,0 0.824363,0.03648 1.19262,0.109317 0.387641,0.06243 0.716612,0.165838 0.98796,0.311511 0.290731,0.145673 0.513994,0.333287 0.669051,0.5622 0.174438,0.218509 0.261374,0.484299 0.261374,0.79645 0,0.603504 -0.3102,1.05608 -0.930425,1.357829 -0.600843,0.291344 -1.327771,0.436445 -2.18058,0.436445 -0.872191,0 -1.608504,-0.145101 -2.209348,-0.436445 -0.581461,-0.291345 -0.872067,-0.743921 -0.872067,-1.357829 0,-0.624307 0.290606,-1.07771 0.872067,-1.35865 0.600844,-0.280939 1.337157,-0.420828 2.209348,-0.420828 z M 1.10939,78.128725 h 5.4658341 l 5.7855649,9.536854 c 0.213203,0.34337 0.464623,0.785522 0.755354,1.326595 0.290731,0.541066 0.582159,1.092664 0.87289,1.654544 0.290729,0.561882 0.552358,1.092633 0.784943,1.592079 0.251965,0.499449 0.416451,0.879063 0.49398,1.139195 h 0.203838 c 0.09691,-0.260132 0.261395,-0.639746 0.49398,-1.139195 0.232585,-0.499446 0.494212,-1.030197 0.784943,-1.592079 0.290731,-0.56188 0.581337,-1.113478 0.872068,-1.654544 0.290731,-0.541073 0.542974,-0.983225 0.756175,-1.326595 l 5.785565,-9.536854 h 5.465834 l -10.9029,17.13724 h -6.71599 z m 49.046204,0 h 5.291585 v 17.13724 h -5.291585 z m 29.16043,0 h 20.002488 v 2.279212 L 84.08404,93.128125 h 15.757219 v 2.13784 H 78.356832 v -1.95044 L 93.939802,80.267387 H 79.316024 Z" />
</svg>
