<svg data-name="cdevents" xmlns="http://www.w3.org/2000/svg" viewBox="0 0 444 184">
  <defs>
    <style>.cls-1{fill:#4968BF}</style>
  </defs>
  <path class="cls-1"
    d="M170.11609 121.3139a22.20351 22.20351.0 00-7.60482-4.75945 25.12123 25.12123.0 00-8.8464-1.60268 22.27654 22.27654.0 00-11.74344 3.36157 25.39185 25.39185.0 00-9.00055 9.57178 30.33425 30.33425.0 00-3.46612 15.00046 28.76374 28.76374.0 003.41444 14.27835 24.389 24.389.0 009.46612 9.519 28.263 28.263.0 0014.12316 3.41436 22.1373 22.1373.0 0010.864-2.74074 27.86682 27.86682.0 008.06927-6.46779 2.84555 2.84555.0 001.03472-2.17278 2.65775 2.65775.0 00-.776-1.86241 2.52547 2.52547.0 00-1.91417-.82777 3.21605 3.21605.0 00-2.17278.9312 20.22371 20.22371.0 01-3.67194 3.57074 18.67111 18.67111.0 01-5.12158 2.74075 18.93048 18.93048.0 01-6.415 1.03463 20.92053 20.92053.0 01-11.2778-2.897 19.16938 19.16938.0 01-7.13814-7.86344 24.36927 24.36927.0 01-2.47776-10.96751h39.10278a3.0578 3.0578.0 002.17278-.87833 2.81352 2.81352.0 00.9312-2.12214 26.41064 26.41064.0 00-2.17278-10.55139A24.562 24.562.0 00170.11609 121.3139zm-33.00475 11.48474a19.96286 19.96286.0 014.29277-6.72529 16.7009 16.7009.0 015.8976-3.87889 17.80854 17.80854.0 016.36316-1.24158 18.10351 18.10351.0 017.91519 1.80954 18.41623 18.41623.0 016.46667 5.17334 14.87621 14.87621.0 013.104 8.22668v.82769h-35.2214A21.36489 21.36489.0 01137.11134 132.79864z" />
  <path class="cls-1"
    d="M231.88345 115.883a3.15941 3.15941.0 00-1.96592-.72426 2.83553 2.83553.0 00-2.99944 1.96583l-17.67232 41.85869-17.60864-41.85869a3.143 3.143.0 00-1.24158-1.552 3.10119 3.10119.0 00-1.65547-.51731 3.011 3.011.0 00-3.2075 3.00047 3.385 3.385.0 00.10343.82777c.0683.27516.13762.51732.207.72426l20.38186 47.48893a2.75985 2.75985.0 001.24158 1.50139 2.90892 2.90892.0 001.86241.46453 3.04876 3.04876.0 002.79361-1.96592l20.27835-47.59244c.06821-.20695.15518-.449.25861-.72426a2.968 2.968.0 00.15528-1.03464A2.25478 2.25478.0 00231.88345 115.883z" />
  <path class="cls-1"
    d="M281.33933 121.3139a22.20294 22.20294.0 00-7.60473-4.75945 25.12192 25.12192.0 00-8.8464-1.60268 22.27681 22.27681.0 00-11.74352 3.36157 25.39228 25.39228.0 00-9.00047 9.57178 30.33328 30.33328.0 00-3.46612 15.00046 28.76456 28.76456.0 003.41436 14.27835 24.39007 24.39007.0 009.46611 9.519 28.26327 28.26327.0 0014.12317 3.41436 22.13707 22.13707.0 0010.864-2.74074 27.86721 27.86721.0 008.06935-6.46779 2.84545 2.84545.0 001.03463-2.17278 2.65736 2.65736.0 00-.776-1.86241 2.52526 2.52526.0 00-1.91408-.82777 3.21609 3.21609.0 00-2.17278.9312 20.22147 20.22147.0 01-3.672 3.57074 18.66967 18.66967.0 01-5.12158 2.74075 18.92958 18.92958.0 01-6.41491 1.03463 20.9206 20.9206.0 01-11.27788-2.897 19.16974 19.16974.0 01-7.13806-7.86344 24.36918 24.36918.0 01-2.47784-10.96751h39.10277a3.05753 3.05753.0 002.17279-.87833 2.81352 2.81352.0 00.9312-2.12214 26.41064 26.41064.0 00-2.17278-10.55139A24.56053 24.56053.0 00281.33933 121.3139zm-33.00475 11.48474a19.96425 19.96425.0 014.29278-6.72529 16.70232 16.70232.0 015.8976-3.87889 17.809 17.809.0 016.36324-1.24158 18.10376 18.10376.0 017.91519 1.80954 18.41685 18.41685.0 016.46659 5.17334 14.87628 14.87628.0 013.10407 8.22668v.82769h-35.2214A21.37107 21.37107.0 01248.33458 132.79864z" />
  <path class="cls-1"
    d="M337.57123 117.69251q-4.08965-2.73744-10.91575-2.74074a20.668 20.668.0 00-7.39779 1.39574 24.1804 24.1804.0 00-6.67362 3.82824 22.40839 22.40839.0 00-4.6549 5.10813v-5.67609a3.07244 3.07244.0 00-.87945-2.17278 2.93364 2.93364.0 00-2.22454-.9312 3.09574 3.09574.0 00-2.2763.9312 2.978 2.978.0 00-.9312 2.17278v46.35078a3.094 3.094.0 003.2075 3.10407 3.18256 3.18256.0 003.104-3.10407v-30.1065a12.55628 12.55628.0 012.48212-7.55307 17.77865 17.77865.0 016.46667-5.43315 18.4089 18.4089.0 018.43251-2.01648 14.06147 14.06147.0 017.96695 2.01648A11.45893 11.45893.0 01337.623 128.299a20.48116 20.48116.0 011.34509 7.55307v30.1065a3.09392 3.09392.0 003.2063 3.10407 3.1824 3.1824.0 003.104-3.10407v-30.417a28.77206 28.77206.0 00-1.81065-10.39946A15.41839 15.41839.0 00337.57123 117.69251z" />
  <path class="cls-1"
    d="M382.21376 116.40029H371.86708V104.91555a3.068 3.068.0 00-.87944-2.17286 2.92971 2.92971.0 00-2.22343-.93121 3.09438 3.09438.0 00-2.27629.93121 2.97815 2.97815.0 00-.93112 2.17286v11.48474h-7.44964a2.97911 2.97911.0 00-2.121.82778 2.72335 2.72335.0 00-.87953 2.06926 3.00467 3.00467.0 003.00055 3.00056h7.44964v34.866a15.25292 15.25292.0 001.345 7.13918 7.87945 7.87945.0 003.30982 3.46723 10.49808 10.49808.0 003.82833 1.13815q1.86237.15527 2.79353.15415a7.55736 7.55736.0 003.93176-.98184 2.84055 2.84055.0 001.65546-2.4326 2.63512 2.63512.0 00-.6725-1.86241 2.11883 2.11883.0 00-1.60379-.72426 4.16069 4.16069.0 00-1.5002.25982 4.17183 4.17183.0 01-1.50027.2575 7.02822 7.02822.0 01-2.48324-.46445 3.858 3.858.0 01-2.0176-1.91528 9.48594 9.48594.0 01-.776-4.34556V122.29789h10.34668a2.82894 2.82894.0 002.89713-2.897 2.9906 2.9906.0 00-.82778-2.12214A2.73431 2.73431.0 00382.21376 116.40029z" />
  <path class="cls-1"
    d="M433.06323 148.88661a12.80823 12.80823.0 00-3.72482-4.29278 22.17993 22.17993.0 00-5.37916-2.84639 60.55792 60.55792.0 00-6.36316-1.96584 63.53433 63.53433.0 01-7.0875-2.27407 15.06608 15.06608.0 01-5.0688-3.10407 7.19612 7.19612.0 01-2.121-4.86288 7.4583 7.4583.0 011.75889-5.17334 10.44619 10.44619.0 014.39629-2.897 16.81669 16.81669.0 015.6389-.9312 19.213 19.213.0 017.34612 1.39565 15.80916 15.80916.0 015.8976 4.19149 2.45689 2.45689.0 001.80953.87841 2.86819 2.86819.0 001.91528-.568 3.12433 3.12433.0 001.03464-2.22565 2.92088 2.92088.0 00-.93121-2.12 17.77011 17.77011.0 00-5.17333-4.24214 23.33987 23.33987.0 00-5.8976-2.22556 26.13783 26.13783.0 00-5.69066-.67148 22.18629 22.18629.0 00-9.20852 1.86241 15.41606 15.41606.0 00-6.46556 5.17334 12.97825 12.97825.0 00-2.328 7.65649 12.3835 12.3835.0 001.50028 6.31148 13.7317 13.7317.0 004.087 4.39621 25.08127 25.08127.0 005.84472 3.00056q3.25917 1.18871 6.77705 2.12a46.37972 46.37972.0 016.36324 2.01871 13.78788 13.78788.0 014.81121 3.104 7.02971 7.02971.0 011.86232 5.12046 7.25941 7.25941.0 01-1.86232 5.1227 11.30321 11.30321.0 01-4.70778 3.00055 17.46768 17.46768.0 01-5.74241.98185 19.1074 19.1074.0 01-9.46715-2.22342 22.0534 22.0534.0 01-6.776-5.847 3.28422 3.28422.0 00-2.0176-1.03464 2.44823 2.44823.0 00-1.91408.62083 2.29307 2.29307.0 00-1.29333 1.9152 4.03823 4.03823.0 00.776 2.43037 23.24491 23.24491.0 009.2602 7.24269 27.88587 27.88587.0 0010.8112 2.17278 24.38959 24.38959.0 009.41547-1.7589 16.06907 16.06907.0 006.77593-5.0699 12.565 12.565.0 002.536-7.86344A13.62279 13.62279.0 00433.06323 148.88661z" />
  <path class="cls-1"
    d="M52.40612 153.62594a5.30069 5.30069.0 00-3.41444.9312 18.82786 18.82786.0 01-2.58667 1.759 11.0312 11.0312.0 01-3.104.93112 27.50106 27.50106.0 01-4.44908.31046 14.95376 14.95376.0 01-8.22557-2.2763 15.78652 15.78652.0 01-5.58722-6.15518 18.89844 18.89844.0 01-2.0176-8.84743 19.539 19.539.0 011.96593-8.9488 15.15656 15.15656.0 015.63889-6.15518 16.67644 16.67644.0 018.94983-2.27621 20.92557 20.92557.0 013.15574.361 9.48825 9.48825.0 013.15574.984 11.016 11.016.0 011.96584 1.3451 7.18478 7.18478.0 001.91417 1.18879 6.98887 6.98887.0 002.74185.46667 4.11206 4.11206.0 003.62028-1.81176 6.72807 6.72807.0 001.24157-3.87889 6.98164 6.98164.0 00-2.43148-5.32964 16.7288 16.7288.0 00-6.82769-3.465 38.09394 38.09394.0 00-10.29491-1.24167 27.05293 27.05293.0 00-14.12317 3.672 25.70658 25.70658.0 00-9.6213 10.13973 31.16568 31.16568.0 00-3.4662 14.94982 32.16589 32.16589.0 003.25926 14.58872 25.24293 25.24293.0 009.25917 10.296A26.04559 26.04559.0 0037.3 168.939a38.43005 38.43005.0 0010.1914-1.29222 23.30191 23.30191.0 007.60371-3.41445q2.89593-2.11995 2.897-4.7088a6.25447 6.25447.0 00-1.44852-4.18927A5.12886 5.12886.0 0052.40612 153.62594z" />
  <path class="cls-1"
    d="M111.79265 51.76692a5.94151 5.94151.0 00-4.44908 1.81177 6.19938 6.19938.0 00-1.75786 4.49963v59.90213a24.95928 24.95928.0 00-2.0176-1.70371 24.38829 24.38829.0 00-6.46667-3.41444 23.92711 23.92711.0 00-8.17381-1.3451 22.81166 22.81166.0 00-12.623 3.672 26.11958 26.11958.0 00-9.0522 10.1398 34.68823 34.68823.0 000 29.79836 25.81487 25.81487.0 009.15575 10.13973 23.65924 23.65924.0 0012.93325 3.672 20.18385 20.18385.0 007.29445-1.29222 24.16722 24.16722.0 005.84584-3.15686 21.787 21.787.0 003.113-2.79147 6.18045 6.18045.0 001.74887 4.39629 6.374 6.374.0 008.89816.0 6.20632 6.20632.0 001.75889-4.50186V58.07832a6.16254 6.16254.0 00-1.75889-4.55251 6.03748 6.03748.0 00-4.4491-1.75889zM98.86042 155.2814a14.01523 14.01523.0 01-7.967 2.2763A13.83362 13.83362.0 0183.03 155.2814a15.35724 15.35724.0 01-5.32852-6.208 19.80177 19.80177.0 01-1.913-8.79464 20.04942 20.04942.0 011.913-8.89592A15.3581 15.3581.0 0183.03 125.17481a13.85069 13.85069.0 017.86344-2.27621 14.03236 14.03236.0 017.967 2.27621 15.37559 15.37559.0 015.32852 6.20806 20.0814 20.0814.0 011.91408 8.89592 19.83374 19.83374.0 01-1.91408 8.79464A15.37474 15.37474.0 0198.86042 155.2814z" />
  <path class="cls-1"
    d="M211.32539 60.12824c-.01371-.39349-.02742-.787-.02742-1.14757a42.91008 42.91008.0 00-.51826-8.11528c-.06581-.42914-.12682-.86034-.18784-1.29428l-.02125-.14876c-.08774-.617-.17618-1.234-.28038-1.84681a53.84573 53.84573.0 00-2.55222-9.511c-.71158-1.938-1.36489-3.68266-2.15736-5.40813a64.56223 64.56223.0 00-5.05577-8.98042 69.89167 69.89167.0 00-7.35023-9.31015 6.77859 6.77859.0 00-5.92159-1.58152 5.90591 5.90591.0 00-4.16664 3.67169 4.91568 4.91568.0 001.27371 4.81515 69.46447 69.46447.0 014.62937 5.64327 57.58287 57.58287.0 016.05322 10.62088 54.81589 54.81589.0 012.77707 7.84724c.50044 1.855.85211 3.743 1.16883 5.51782a43.26692 43.26692.0 01.60258 6.46864 46.87812 46.87812.0 01-.83361 10.38849c-.34208 1.73576-.69581 3.53116-1.151 5.2676a45.41787 45.41787.0 01-2.57141 7.20285c-.94055 2.07783-1.853 3.90271-2.79079 5.57951a58.67478 58.67478.0 01-7.80679 10.60923 4.685 4.685.0 00-1.0516 4.82 5.59872 5.59872.0 004.01582 3.51607 6.34118 6.34118.0 001.55066.19264 6.5113 6.5113.0 004.18995-1.55752 23.53582 23.53582.0 003.58669-4.04393l.57241-.75408a67.33657 67.33657.0 006.15193-9.30811c.78973-1.47319 1.55478-2.92309 2.24031-4.4669.88638-1.99762 1.62813-4.01788 2.437-6.26229a55.22825 55.22825.0 001.56163-5.46229l.15356-.61492c.15836-.63206.25433-1.2648.35785-1.94347.07266-.47782.14533-.95563.25158-1.42727a33.70456 33.70456.0 00.56419-3.9411c.06924-.66154.13848-1.32307.23171-1.98255A17.31448 17.31448.0 00211.32539 60.12824z" />
  <path class="cls-1"
    d="M180.44235 57.86463a12.11967 12.11967.0 00-.07335-2.509c-.11654-.71707-.20223-1.43619-.29615-2.21769-.13231-1.10575-.26941-2.24921-.51346-3.38651-.08638-.4024-.16521-.80618-.24748-1.22641a27.85349 27.85349.0 00-.74379-3.14451 60.08686 60.08686.0 00-2.90733-7.57783 54.65929 54.65929.0 00-7.62444-11.76092 6.25974 6.25974.0 00-6.44191-2.21288 5.57253 5.57253.0 00-3.96235 3.05814 4.53471 4.53471.0 00.33248 4.43948 26.61882 26.61882.0 001.6672 2.20191l.40789-.33248-.35921.39281c.37429.46067.74928.922 1.09616 1.39985A41.81653 41.81653.0 01164.05 40.33019a44.89064 44.89064.0 012.095 4.51763 39.78255 39.78255.0 011.35529 4.50666l.15492.60944a20.94851 20.94851.0 01.73763 3.85815c.03565.60052.08089 1.20036.12683 1.80088a29.12573 29.12573.0 01.05827 5.79546l-.16042 1.35323A38.16508 38.16508.0 01164.172 77.14373a44.931 44.931.0 01-5.293 8.009c-1.05982 1.28605-2.04081 2.87922-1.27851 4.944a5.2994 5.2994.0 004.04393 3.57434 8.5107 8.5107.0 001.78169.19949 5.54053 5.54053.0 004.14882-1.69257 44.75438 44.75438.0 005.96958-8.17149 50.95316 50.95316.0 004.34624-9.54667 47.90272 47.90272.0 002.15942-9.30673l.08637-.62314a21.68991 21.68991.0 00.27833-5.73924C180.41493 58.49874 180.428 58.19505 180.44235 57.86463z" />
  <path class="cls-1"
    d="M146.30511 44.59555a39.755 39.755.0 00-3.17605-5.67206 6.69472 6.69472.0 00-4.66982-3.22952 6.37874 6.37874.0 00-4.74454 1.14963 4.84977 4.84977.0 00-2.05179 3.50784 5.97 5.97.0 001.3313 4.0028 23.69228 23.69228.0 013.21307 6.1485 24.72731 24.72731.0 011.41973 6.457 27.09475 27.09475.0 01-.36882 7.04106l-.04456.22211a17.78531 17.78531.0 01-.80823 3.12464 31.432 31.432.0 01-3.55858 6.75039 4.62655 4.62655.0 00-.68827 4.97214 5.71077 5.71077.0 004.92552 3.26517c.2132.01782.42366.026.63069.026a5.7267 5.7267.0 004.66913-2.14845 34.99845 34.99845.0 003.31521-5.391 34.22289 34.22289.0 003.18908-8.98659 28.56474 28.56474.0 00.63754-6.67018 34.656 34.656.0 00-.94466-8.11254A35.17784 35.17784.0 00146.30511 44.59555z" />
  <path class="cls-1"
    d="M32.23666 90.63013a57.5468 57.5468.0 01-6.05252-10.62089 54.79217 54.79217.0 01-2.77776-7.84792c-.50044-1.85436-.85211-3.7423-1.16883-5.51713a43.26707 43.26707.0 01-.60258-6.46865 46.83767 46.83767.0 01.82812-10.3597c.34345-1.74467.69924-3.54966 1.15649-5.29707A45.41026 45.41026.0 0126.191 37.31661c.93781-2.07372 1.85093-3.89928 2.79079-5.5802a58.66573 58.66573.0 017.80679-10.60854 4.68273 4.68273.0 001.0516-4.82 5.60015 5.60015.0 00-4.01582-3.51608 6.43091 6.43091.0 00-5.74061 1.3642 23.49392 23.49392.0 00-3.586 4.04462l-.5731.7534a67.43656 67.43656.0 00-6.15193 9.3081c-.79179 1.47868-1.55889 2.93268-2.24031 4.46758-.88913 2.00312-1.6295 4.02062-2.43705 6.2623a55.22553 55.22553.0 00-1.56163 5.46229l-.15356.61492c-.159.6348-.255 1.26891-.35785 1.94484-.07266.47781-.14533.95563-.2509 1.4259a32.77842 32.77842.0 00-.55459 3.84238c-.072.69444-.144 1.38888-.242 2.08127a17.31439 17.31439.0 00-.074 3.05265c.01371.3935.02742.787.02742 1.14758a42.90931 42.90931.0 00.51826 8.11528c.06033.39006.11585.78219.17138 1.175l.02879.205c.09049.63754.18167 1.27576.2893 1.90919A53.89249 53.89249.0 0013.48816 79.48c.71158 1.938 1.36488 3.68335 2.15735 5.40745a64.44624 64.44624.0 005.05577 8.98042A69.85205 69.85205.0 0028.0522 103.178a6.72477 6.72477.0 004.56493 1.7673 4.68437 4.68437.0 001.35666-.1851 5.90831 5.90831.0 004.166-3.67237A4.91364 4.91364.0 0036.866 96.2734a69.46484 69.46484.0 01-4.62934-5.64327z" />
  <path class="cls-1"
    d="M61.5944 84.01615l-.4078.3324.3893-.355c-.38459-.47438-.76985-.94808-1.12633-1.43755a41.81555 41.81555.0 01-3.27339-5.34164 44.8874 44.8874.0 01-2.095-4.51763 39.736 39.736.0 01-1.35529-4.50734l-.15561-.61149a20.93384 20.93384.0 01-.73694-3.85473c-.03428-.59846-.08021-1.19556-.12683-1.80157a29.07365 29.07365.0 01-.05758-5.79545l.16041-1.35323a41.33229 41.33229.0 01.79384-5.03658 41.25225 41.25225.0 013.45095-9.33552 45.00771 45.00771.0 015.29228-8.00971c1.06051-1.28536 2.0415-2.87785 1.27919-4.94334a5.299 5.299.0 00-4.04393-3.575 6.02971 6.02971.0 00-5.9305 1.49377A44.71205 44.71205.0 0047.68161 33.538a50.92566 50.92566.0 00-4.34556 9.54666 47.92357 47.92357.0 00-2.1601 9.30673l-.08638.62315a21.68615 21.68615.0 00-.27832 5.73855c0 .29341-.013.59778-.02742.92615a12.125 12.125.0 00.07335 2.50972c.11654.71706.20223 1.43618.29615 2.21563.13231 1.10575.26941 2.2499.51346 3.38856.08638.40241.16521.80618.24747 1.22641a27.85588 27.85588.0 00.7438 3.14452 60.08746 60.08746.0 002.90733 7.57783 54.65929 54.65929.0 007.62444 11.76092 6.186 6.186.0 004.87753 2.38152h.00274a7.62676 7.62676.0 001.56164-.16864 5.57167 5.57167.0 003.96235-3.05883 4.5337 4.5337.0 00-.3318-4.43879A26.65649 26.65649.0 0061.5944 84.01615z" />
  <path class="cls-1"
    d="M85.0189 67.04179a24.73853 24.73853.0 01-1.41973-6.457 27.09516 27.09516.0 01.36881-7.041l.04456-.22212a17.71451 17.71451.0 01.80893-3.12463A31.37127 31.37127.0 0188.38 43.4466a4.62763 4.62763.0 00.68759-4.97213 5.70992 5.70992.0 00-4.92552-3.26517 5.85548 5.85548.0 00-5.29982 2.12239 35.03155 35.03155.0 00-3.31521 5.391A34.223 34.223.0 0072.338 51.70927a28.60245 28.60245.0 00-.63754 6.6695 34.666 34.666.0 00.94466 8.11323 35.21275 35.21275.0 002.27595 6.457 39.68886 39.68886.0 003.17605 5.67206 6.69207 6.69207.0 004.66845 3.22815 6.20043 6.20043.0 00.99333.07884 6.35709 6.35709.0 003.754-1.2271 4.85327 4.85327.0 002.05041-3.50785 5.97007 5.97007.0 00-1.33129-4.0028A23.69182 23.69182.0 0185.0189 67.04179z" />
</svg>