<?xml version="1.0" encoding="UTF-8" standalone="no"?>
<!-- Created with Inkscape (http://www.inkscape.org/) -->

<svg
   width="64mm"
   height="64mm"
   viewBox="0 0 101.79402 101.79402"
   version="1.1"
   id="svg1"
   inkscape:version="1.3.2 (091e20ef0f, 2023-11-25, custom)"
   sodipodi:docname="cdviz.svg"
   inkscape:export-filename="../favicon.webp"
   inkscape:export-xdpi="12.735777"
   inkscape:export-ydpi="12.735777"
   xmlns:inkscape="http://www.inkscape.org/namespaces/inkscape"
   xmlns:sodipodi="http://sodipodi.sourceforge.net/DTD/sodipodi-0.dtd"
   xmlns:xlink="http://www.w3.org/1999/xlink"
   xmlns="http://www.w3.org/2000/svg"
   xmlns:svg="http://www.w3.org/2000/svg">
  <sodipodi:namedview
     id="namedview1"
     pagecolor="#ffffff"
     bordercolor="#666666"
     borderopacity="1.0"
     inkscape:showpageshadow="2"
     inkscape:pageopacity="0.0"
     inkscape:pagecheckerboard="0"
     inkscape:deskcolor="#d1d1d1"
     inkscape:document-units="mm"
     showgrid="false"
     inkscape:zoom="2.2842636"
     inkscape:cx="195.6867"
     inkscape:cy="187.8067"
     inkscape:window-width="1691"
     inkscape:window-height="1347"
     inkscape:window-x="0"
     inkscape:window-y="0"
     inkscape:window-maximized="1"
     inkscape:current-layer="svg1"
     inkscape:clip-to-page="false"
     showborder="true"
     inkscape:export-bgcolor="#cfdcf000">
    <inkscape:grid
       id="grid2"
       units="px"
       originx="0"
       originy="0"
       spacingx="0.26458333"
       spacingy="0.26458334"
       empcolor="#0099e5"
       empopacity="0.30196078"
       color="#0099e5"
       opacity="0.14901961"
       empspacing="5"
       dotted="false"
       gridanglex="30"
       gridanglez="30"
       visible="false" />
  </sodipodi:namedview>
  <defs
     id="defs1">
    <linearGradient
       id="linearGradient1"
       inkscape:collect="always">
      <stop
         style="stop-color:#f39208;stop-opacity:1;"
         offset="0.08606797"
         id="stop1" />
      <stop
         style="stop-color:#f3d008;stop-opacity:1;"
         offset="1"
         id="stop2" />
    </linearGradient>
    <filter
       height="1.4281371"
       width="1.4253545"
       y="-0.21406855"
       x="-0.21267723"
       style="color-interpolation-filters:sRGB;"
       inkscape:label="Blur Double"
       id="filter1"
       inkscape:menu="Blurs"
       inkscape:menu-tooltip="Overlays two copies with different blur amounts and modifiable blend and composite">
      <feGaussianBlur
         stdDeviation="2 2"
         result="blur"
         id="feGaussianBlur1" />
      <feColorMatrix
         values="1 0 0 0 0 0 1 0 0 0 0 0 1 0 0 0 0 0 50 0 "
         result="colormatrix"
         id="feColorMatrix1" />
      <feComposite
         in="colormatrix"
         in2="SourceGraphic"
         operator="in"
         id="feComposite1"
         result="fbSourceGraphic" />
      <feColorMatrix
         result="fbSourceGraphicAlpha"
         in="fbSourceGraphic"
         values="0 0 0 -1 0 0 0 0 -1 0 0 0 0 -1 0 0 0 0 1 0"
         id="feColorMatrix2" />
      <feGaussianBlur
         id="feGaussianBlur2"
         stdDeviation="2 2"
         result="blur"
         in="fbSourceGraphic" />
      <feColorMatrix
         id="feColorMatrix3"
         values="1 0 0 0 0 0 1 0 0 0 0 0 1 0 0 0 0 0 50 0 "
         result="colormatrix" />
      <feComposite
         id="feComposite3"
         in="colormatrix"
         in2="fbSourceGraphic"
         operator="in"
         result="fbSourceGraphic" />
      <feColorMatrix
         result="fbSourceGraphicAlpha"
         in="fbSourceGraphic"
         values="0 0 0 -1 0 0 0 0 -1 0 0 0 0 -1 0 0 0 0 1 0"
         id="feColorMatrix6" />
      <feGaussianBlur
         id="feGaussianBlur6"
         stdDeviation="5"
         result="fbSourceGraphic"
         in="fbSourceGraphic" />
      <feGaussianBlur
         id="feGaussianBlur7"
         stdDeviation="0.01"
         in="fbSourceGraphic"
         result="result1" />
      <feComposite
         id="feComposite7"
         in2="result1"
         operator="arithmetic"
         in="fbSourceGraphic"
         k2="0.5"
         k3="0.5"
         result="result2" />
      <feBlend
         id="feBlend7"
         in2="fbSourceGraphic"
         mode="normal"
         result="result3" />
    </filter>
    <filter
       inkscape:collect="always"
       style="color-interpolation-filters:sRGB"
       id="filter3"
       x="-0.0019137605"
       y="-0.0019262802"
       width="1.0038275"
       height="1.0038526">
      <feGaussianBlur
         inkscape:collect="always"
         stdDeviation="0.081075826"
         id="feGaussianBlur3" />
    </filter>
    <linearGradient
       inkscape:collect="always"
       xlink:href="#linearGradient1"
       id="linearGradient3"
       x1="71.317589"
       y1="97.420563"
       x2="49.903812"
       y2="15.56449"
       gradientUnits="userSpaceOnUse" />
  </defs>
  <g
     inkscape:label="Layer 1"
     inkscape:groupmode="layer"
     id="layer1" />
  <rect
     style="fill:none;fill-opacity:1;fill-rule:evenodd;stroke:none;stroke-width:3.23832217;stroke-linejoin:round;stroke-dasharray:none"
     id="rect1"
     width="101.50806"
     height="101.52661"
     x="0.22281978"
     y="0.12064902" />
  <path
     id="rect2"
     style="fill:url(#linearGradient3);fill-rule:evenodd;stroke:none;stroke-width:0.3181063;stroke-linejoin:round;fill-opacity:1;stroke-opacity:1;stroke-dasharray:none;filter:url(#filter3)"
     d="M 29.048648 0.82686152 C 24.536148 0.82686152 20.538558 1.68494 17.05669 3.4003242 C 13.574822 5.1157084 10.650258 7.5168482 8.282588 10.60454 C 5.9427727 13.692231 4.1599074 17.38832 2.9342899 21.692375 C 1.7365273 25.99643 1.137551 30.737709 1.137551 35.915051 C 1.137551 41.185959 1.6670318 45.989061 2.7255197 50.324305 C 3.7840076 54.659548 5.399755 58.370476 7.5724406 61.458168 C 9.3786123 63.9925 11.575608 66.046158 14.151168 67.634971 L 0.090412294 67.634971 L 0.090412294 101.84123 L 101.76561 101.84123 L 101.76561 67.634971 L 84.528919 67.634971 C 87.851339 66.180763 90.684869 64.126802 93.01699 61.458168 C 95.55179 58.52642 97.487707 54.892976 98.824747 50.557733 C 100.16178 46.1913 100.83026 41.123602 100.83026 35.353673 C 100.83026 29.864443 100.16178 25.030019 98.824747 20.850719 C 97.51556 16.671419 95.649139 13.178104 93.22576 10.371112 C 90.80238 7.5329308 87.863753 5.3963873 84.409739 3.9617023 C 80.955727 2.5270174 77.09795 1.8098897 72.836144 1.8098897 L 55.830413 1.8098897 L 55.830413 67.634971 L 42.710768 67.634971 L 42.710768 60.803089 C 40.538082 61.520432 38.338244 62.160076 36.109848 62.721474 C 33.881453 63.251684 31.527738 63.517102 29.048648 63.517102 C 25.761765 63.517102 22.892633 62.908781 20.441398 61.692418 C 17.990162 60.476054 15.942557 58.698075 14.299115 56.358914 C 12.655674 54.019754 11.416352 51.150422 10.580704 47.750842 C 9.7729105 44.320073 9.3683575 40.40555 9.3683575 36.007929 C 9.3683575 31.735063 9.8283431 27.898846 10.747556 24.499266 C 11.694625 21.099687 13.017504 18.214693 14.716656 15.844344 C 16.443662 13.473994 18.519395 11.665514 20.942775 10.417962 C 23.366155 9.1392211 26.068169 8.4995775 29.048648 8.4995775 C 31.667013 8.4995775 34.006664 8.8581413 36.06793 9.5754838 C 38.129195 10.292826 40.036988 11.150905 41.79185 12.148946 L 45.050802 4.8502086 C 42.850261 3.5402788 40.384861 2.5428934 37.655076 1.8567397 C 34.925292 1.170586 32.056982 0.82686152 29.048648 0.82686152 z M 63.602583 9.2483557 L 72.000241 9.2483557 C 75.259269 9.2483557 78.170592 9.7783706 80.733247 10.83879 C 83.295902 11.86802 85.454371 13.458887 87.209233 15.610915 C 88.964094 17.762943 90.301038 20.506986 91.220251 23.844188 C 92.139464 27.150201 92.599449 31.080386 92.599449 35.633951 C 92.599449 44.585138 90.733025 51.337671 87.000463 55.891236 C 83.2679 60.444801 77.724881 62.721474 70.371176 62.721474 L 63.602583 62.721474 L 63.602583 9.2483557 z M 52.725984 71.835033 C 53.152388 71.835033 53.550347 71.871513 53.918604 71.94435 C 54.306245 72.006781 54.635216 72.110188 54.906564 72.255861 C 55.197295 72.401534 55.420558 72.589148 55.575615 72.818061 C 55.750053 73.03657 55.836989 73.30236 55.836989 73.614511 C 55.836989 74.218015 55.526789 74.670591 54.906564 74.97234 C 54.305721 75.263684 53.578793 75.408785 52.725984 75.408785 C 51.853793 75.408785 51.11748 75.263684 50.516636 74.97234 C 49.935175 74.680995 49.644569 74.228419 49.644569 73.614511 C 49.644569 72.990204 49.935175 72.536801 50.516636 72.255861 C 51.11748 71.974922 51.853793 71.835033 52.725984 71.835033 z M 1.0052203 78.249374 L 6.4710544 78.249374 L 12.256619 87.786228 C 12.469822 88.129598 12.721242 88.57175 13.011973 89.112823 C 13.302704 89.653889 13.594132 90.205487 13.884863 90.767367 C 14.175592 91.329249 14.437221 91.86 14.669806 92.359446 C 14.921771 92.858895 15.086257 93.238509 15.163786 93.498641 L 15.367624 93.498641 C 15.464534 93.238509 15.629019 92.858895 15.861604 92.359446 C 16.094189 91.86 16.355816 91.329249 16.646547 90.767367 C 16.937278 90.205487 17.227884 89.653889 17.518615 89.112823 C 17.809346 88.57175 18.061589 88.129598 18.27479 87.786228 L 24.060355 78.249374 L 29.526189 78.249374 L 18.623289 95.386614 L 11.907299 95.386614 L 1.0052203 78.249374 z M 50.051424 78.249374 L 55.343009 78.249374 L 55.343009 95.386614 L 50.051424 95.386614 L 50.051424 78.249374 z M 79.211854 78.249374 L 99.214342 78.249374 L 99.214342 80.528586 L 83.97987 93.248774 L 99.737089 93.248774 L 99.737089 95.386614 L 78.252662 95.386614 L 78.252662 93.436174 L 93.835632 80.388036 L 79.211854 80.388036 L 79.211854 78.249374 z " />
</svg>
