<?xml version="1.0" encoding="UTF-8" standalone="no"?>
<!-- Created with Inkscape (http://www.inkscape.org/) -->

<svg
   width="63.29977mm"
   height="63.47031mm"
   viewBox="0 0 100.68028 100.95153"
   version="1.1"
   id="svg1"
   xmlns:xlink="http://www.w3.org/1999/xlink"
   xmlns="http://www.w3.org/2000/svg"
   xmlns:svg="http://www.w3.org/2000/svg">
  <defs
     id="defs1">
    <linearGradient
       id="linearGradient28">
      <stop
         style="stop-color:#0060f5;stop-opacity:1;"
         offset="0.08606797"
         id="stop27" />
      <stop
         style="stop-color:#75abff;stop-opacity:1;"
         offset="1"
         id="stop28" />
    </linearGradient>
    <filter
       style="color-interpolation-filters:sRGB"
       id="filter3-9-0"
       x="-0.0019137605"
       y="-0.0019262802"
       width="1.0038275"
       height="1.0038526">
      <feGaussianBlur
         stdDeviation="0.081075826"
         id="feGaussianBlur3-84-4" />
    </filter>
    <linearGradient
       xlink:href="#linearGradient28"
       id="linearGradient27"
       gradientUnits="userSpaceOnUse"
       x1="71.317589"
       y1="97.420563"
       x2="49.903812"
       y2="15.56449" />
  </defs>
  <g
     id="cdviz-database"
     transform="translate(-0.61667326,-0.62532773)">
    <ellipse
       style="fill:none;fill-rule:evenodd;stroke:#3383ff;stroke-width:6.49713;stroke-linejoin:round;stroke-dasharray:none;stroke-opacity:1"
       id="path1"
       cx="50.956814"
       cy="51.101097"
       rx="47.091576"
       ry="47.2272" />
    <path
       id="rect2-0-1"
       style="fill:url(#linearGradient27);fill-opacity:1;fill-rule:evenodd;stroke:none;stroke-width:0.318106;stroke-linejoin:round;stroke-dasharray:none;stroke-opacity:1;filter:url(#filter3-9-0)"
       d="m 29.048648,0.82686152 c -4.5125,0 -8.51009,0.85807848 -11.991958,2.57346268 C 13.574822,5.1157084 10.650258,7.5168482 8.282588,10.60454 5.9427727,13.692231 4.1599074,17.38832 2.9342899,21.692375 1.7365273,25.99643 1.137551,30.737709 1.137551,35.915051 c 0,5.270908 0.5294808,10.07401 1.5879687,14.409254 1.0584879,4.335243 2.6742353,8.046171 4.8469209,11.133863 1.8061717,2.534332 4.0031674,4.58799 6.5787274,6.176803 H 0.09041229 V 101.84123 H 101.76561 V 67.634971 H 84.528919 c 3.32242,-1.454208 6.15595,-3.508169 8.488071,-6.176803 2.5348,-2.931748 4.470717,-6.565192 5.807757,-10.900435 1.337033,-4.366433 2.005513,-9.434131 2.005513,-15.20406 0,-5.48923 -0.66848,-10.323654 -2.005513,-14.502954 C 97.51556,16.671419 95.649139,13.178104 93.22576,10.371112 90.80238,7.5329308 87.863753,5.3963873 84.409739,3.9617023 80.955727,2.5270174 77.09795,1.8098897 72.836144,1.8098897 H 55.830413 V 67.634971 H 42.710768 v -6.831882 c -2.172686,0.717343 -4.372524,1.356987 -6.60092,1.918385 -2.228395,0.53021 -4.58211,0.795628 -7.0612,0.795628 -3.286883,0 -6.156015,-0.608321 -8.60725,-1.824684 -2.451236,-1.216364 -4.498841,-2.994343 -6.142283,-5.333504 -1.643441,-2.33916 -2.882763,-5.208492 -3.718411,-8.608072 C 9.7729105,44.320073 9.3683575,40.40555 9.3683575,36.007929 c 0,-4.272866 0.4599856,-8.109083 1.3791985,-11.508663 0.947069,-3.399579 2.269948,-6.284573 3.9691,-8.654922 1.727006,-2.37035 3.802739,-4.17883 6.226119,-5.426382 2.42338,-1.2787409 5.125394,-1.9183845 8.105873,-1.9183845 2.618365,0 4.958016,0.3585638 7.019282,1.0759063 2.061265,0.7173422 3.969058,1.5754212 5.72392,2.5734622 L 45.050802,4.8502086 C 42.850261,3.5402788 40.384861,2.5428934 37.655076,1.8567397 34.925292,1.170586 32.056982,0.82686152 29.048648,0.82686152 Z M 63.602583,9.2483557 h 8.397658 c 3.259028,0 6.170351,0.5300149 8.733006,1.5904343 2.562655,1.02923 4.721124,2.620097 6.475986,4.772125 1.754861,2.152028 3.091805,4.896071 4.011018,8.233273 0.919213,3.306013 1.379198,7.236198 1.379198,11.789763 0,8.951187 -1.866424,15.70372 -5.598986,20.257285 -3.732563,4.553565 -9.275582,6.830238 -16.629287,6.830238 H 63.602583 Z M 52.725984,71.835033 c 0.426404,0 0.824363,0.03648 1.19262,0.109317 0.387641,0.06243 0.716612,0.165838 0.98796,0.311511 0.290731,0.145673 0.513994,0.333287 0.669051,0.5622 0.174438,0.218509 0.261374,0.484299 0.261374,0.79645 0,0.603504 -0.3102,1.05608 -0.930425,1.357829 -0.600843,0.291344 -1.327771,0.436445 -2.18058,0.436445 -0.872191,0 -1.608504,-0.145101 -2.209348,-0.436445 -0.581461,-0.291345 -0.872067,-0.743921 -0.872067,-1.357829 0,-0.624307 0.290606,-1.07771 0.872067,-1.35865 0.600844,-0.280939 1.337157,-0.420828 2.209348,-0.420828 z M 1.0052203,78.249374 h 5.4658341 l 5.7855646,9.536854 c 0.213203,0.34337 0.464623,0.785522 0.755354,1.326595 0.290731,0.541066 0.582159,1.092664 0.87289,1.654544 0.290729,0.561882 0.552358,1.092633 0.784943,1.592079 0.251965,0.499449 0.416451,0.879063 0.49398,1.139195 h 0.203838 c 0.09691,-0.260132 0.261395,-0.639746 0.49398,-1.139195 0.232585,-0.499446 0.494212,-1.030197 0.784943,-1.592079 0.290731,-0.56188 0.581337,-1.113478 0.872068,-1.654544 0.290731,-0.541073 0.542974,-0.983225 0.756175,-1.326595 l 5.785565,-9.536854 h 5.465834 l -10.9029,17.13724 h -6.71599 z m 49.0462037,0 h 5.291585 v 17.13724 h -5.291585 z m 29.16043,0 h 20.002488 v 2.279212 L 83.97987,93.248774 h 15.757219 v 2.13784 H 78.252662 v -1.95044 L 93.835632,80.388036 H 79.211854 Z"
       transform="matrix(0.5034542,0,0,0.5034542,24.028402,14.418201)" />
    <path
       d="M 32.148006,67.731062 V 57.701414 h 2.172962 v 11.877825 l -1.964172,0.0077 z m -4.33819,-2.041501 v -0.556774 q 0,-1.02075 0.170125,-1.786313 0.177858,-0.765563 0.525842,-1.275938 0.347983,-0.510376 0.850625,-0.75783 0.510375,-0.255188 1.167677,-0.255188 0.595438,0 1.043949,0.301585 0.456245,0.293853 0.773296,0.827427 0.317052,0.533574 0.510376,1.260472 0.193323,0.726899 0.270653,1.59299 v 0.804228 q -0.0928,0.819693 -0.286119,1.531126 -0.185591,0.711432 -0.510376,1.237273 -0.317051,0.525841 -0.765563,0.827427 -0.448511,0.293852 -1.043949,0.293852 -0.657302,0 -1.167677,-0.262921 -0.502642,-0.26292 -0.850625,-0.773295 -0.340251,-0.518109 -0.518109,-1.268206 -0.170125,-0.75783 -0.170125,-1.739915 z m 2.165229,-0.556774 v 0.556774 q 0,0.587704 0.05413,1.013017 0.06186,0.41758 0.193324,0.688233 0.139194,0.262921 0.36345,0.394381 0.224255,0.123728 0.556773,0.123728 0.433045,0 0.703699,-0.216523 0.270653,-0.224256 0.402114,-0.610904 0.139193,-0.394381 0.154659,-0.904756 v -1.461529 q -0.01547,-0.425313 -0.100529,-0.765563 -0.08506,-0.34025 -0.239721,-0.579972 -0.154659,-0.239722 -0.386648,-0.371182 -0.224256,-0.131461 -0.525841,-0.131461 -0.324785,0 -0.556774,0.131461 -0.224255,0.13146 -0.355716,0.409847 -0.13146,0.270653 -0.201057,0.703699 -0.06186,0.425313 -0.06186,1.02075 z m 9.658465,2.520945 v -3.866479 q 0,-0.378915 -0.0928,-0.603171 -0.08506,-0.224256 -0.262921,-0.324784 -0.170125,-0.108262 -0.417579,-0.108262 -0.278387,0 -0.463978,0.115994 -0.185591,0.115995 -0.278387,0.332518 -0.08506,0.216523 -0.08506,0.518108 h -2.172962 q 0,-0.541307 0.20879,-1.020751 0.20879,-0.487176 0.610904,-0.850625 0.409847,-0.371182 0.974353,-0.579972 0.564506,-0.20879 1.268205,-0.20879 0.83516,0 1.484728,0.28612 0.649569,0.278386 1.028484,0.88929 0.378915,0.610904 0.378915,1.585256 v 3.727287 q 0,0.703699 0.0696,1.144478 0.07733,0.440778 0.224256,0.75783 v 0.13146 h -2.180694 q -0.146926,-0.347983 -0.224256,-0.866092 -0.0696,-0.525841 -0.0696,-1.059415 z m 0.262921,-3.185979 0.0077,1.299137 h -0.796495 q -0.309318,0 -0.541307,0.100529 -0.224256,0.100528 -0.378915,0.286119 -0.154659,0.177858 -0.231989,0.41758 -0.0696,0.239722 -0.0696,0.510375 0,0.301586 0.08506,0.510375 0.08506,0.20879 0.255188,0.317052 0.170125,0.108261 0.402114,0.108261 0.355716,0 0.618636,-0.146926 0.262921,-0.146926 0.386648,-0.355716 0.131461,-0.20879 0.08506,-0.386648 l 0.494909,0.842892 q -0.0928,0.28612 -0.255187,0.595438 -0.154659,0.309319 -0.394381,0.572239 -0.239722,0.262921 -0.595438,0.433046 -0.347983,0.162392 -0.827427,0.162392 -0.672767,0 -1.22954,-0.309318 -0.556773,-0.309319 -0.881557,-0.866092 -0.317052,-0.556773 -0.317052,-1.322336 0,-0.634102 0.201057,-1.144478 0.20879,-0.518108 0.618637,-0.873824 0.409847,-0.363449 1.036216,-0.556773 0.62637,-0.193324 1.469263,-0.193324 z m 7.16072,-3.255576 v 1.631655 h -4.268594 v -1.631655 z m -3.286508,-2.0647 h 2.157496 v 7.879885 q 0,0.340251 0.0696,0.533575 0.0696,0.185591 0.20879,0.26292 0.146926,0.0696 0.378915,0.0696 0.170125,0 0.309319,-0.01547 0.139193,-0.0232 0.208789,-0.0464 v 1.693518 q -0.255187,0.100529 -0.541307,0.154659 -0.278386,0.05413 -0.665034,0.05413 -0.649569,0 -1.129012,-0.239722 -0.471711,-0.247454 -0.734631,-0.796494 -0.262921,-0.549041 -0.262921,-1.438331 z m 8.181471,8.506255 v -3.866479 q 0,-0.378915 -0.0928,-0.603171 -0.08506,-0.224256 -0.26292,-0.324784 -0.170125,-0.108262 -0.41758,-0.108262 -0.278386,0 -0.463978,0.115994 -0.185591,0.115995 -0.278386,0.332518 -0.08506,0.216523 -0.08506,0.518108 h -2.17296 q 0,-0.541307 0.20879,-1.020751 0.20879,-0.487176 0.610904,-0.850625 0.409846,-0.371182 0.974352,-0.579972 0.564506,-0.20879 1.268206,-0.20879 0.835159,0 1.484728,0.28612 0.649568,0.278386 1.028483,0.88929 0.378915,0.610904 0.378915,1.585256 v 3.727287 q 0,0.703699 0.0696,1.144478 0.07733,0.440778 0.224256,0.75783 v 0.13146 h -2.180695 q -0.146926,-0.347983 -0.224255,-0.866092 -0.0696,-0.525841 -0.0696,-1.059415 z m 0.262921,-3.185979 0.0077,1.299137 h -0.796494 q -0.309319,0 -0.541307,0.100529 -0.224256,0.100528 -0.378915,0.286119 -0.15466,0.177858 -0.231989,0.41758 -0.0696,0.239722 -0.0696,0.510375 0,0.301586 0.08506,0.510375 0.08506,0.20879 0.255187,0.317052 0.170125,0.108261 0.402114,0.108261 0.355716,0 0.618637,-0.146926 0.262921,-0.146926 0.386648,-0.355716 0.13146,-0.20879 0.08506,-0.386648 l 0.49491,0.842892 q -0.0928,0.28612 -0.255188,0.595438 -0.154659,0.309319 -0.394381,0.572239 -0.239721,0.262921 -0.595438,0.433046 -0.347983,0.162392 -0.827426,0.162392 -0.672768,0 -1.229541,-0.309318 -0.556773,-0.309319 -0.881557,-0.866092 -0.317051,-0.556773 -0.317051,-1.322336 0,-0.634102 0.201057,-1.144478 0.20879,-0.518108 0.618636,-0.873824 0.409847,-0.363449 1.036217,-0.556773 0.62637,-0.193324 1.469262,-0.193324 z m 3.518497,-6.766339 h 2.157496 v 9.936852 l -0.154659,1.940973 h -2.002837 z m 6.503419,7.415908 v 0.54904 q 0,1.02075 -0.162392,1.77858 -0.154659,0.75783 -0.487177,1.268205 -0.324784,0.510376 -0.835159,0.765563 -0.510375,0.255188 -1.206342,0.255188 -0.626369,0 -1.074881,-0.293852 -0.448512,-0.301586 -0.75783,-0.827427 -0.301585,-0.533574 -0.494909,-1.245006 -0.185591,-0.719166 -0.270654,-1.569791 v -0.811961 q 0.07733,-0.835159 0.262921,-1.554325 0.193324,-0.719165 0.494909,-1.245006 0.301585,-0.533574 0.750097,-0.827427 0.456245,-0.301585 1.074881,-0.301585 0.711433,0 1.221808,0.262921 0.510375,0.255187 0.835159,0.765563 0.332518,0.510375 0.487177,1.275938 0.162392,0.75783 0.162392,1.755382 z m -2.157496,0.54904 v -0.54904 q 0,-0.579972 -0.0464,-0.997552 -0.0464,-0.41758 -0.170125,-0.695966 -0.123728,-0.278387 -0.355717,-0.41758 -0.224255,-0.139194 -0.595437,-0.139194 -0.332518,0 -0.556773,0.131461 -0.224256,0.123727 -0.386648,0.371182 -0.15466,0.239722 -0.231989,0.572239 -0.0696,0.324784 -0.07733,0.719165 v 1.461529 q 0.0077,0.533574 0.131461,0.943421 0.123727,0.409847 0.39438,0.634103 0.278387,0.224256 0.742364,0.224256 0.36345,0 0.587705,-0.123728 0.224256,-0.123727 0.347984,-0.394381 0.13146,-0.270653 0.170125,-0.695966 0.0464,-0.433046 0.0464,-1.043949 z m 7.176187,1.98737 v -3.866479 q 0,-0.378915 -0.0928,-0.603171 -0.08506,-0.224256 -0.26292,-0.324784 -0.170125,-0.108262 -0.41758,-0.108262 -0.278387,0 -0.463978,0.115994 -0.185591,0.115995 -0.278386,0.332518 -0.08506,0.216523 -0.08506,0.518108 h -2.172961 q 0,-0.541307 0.20879,-1.020751 0.20879,-0.487176 0.610903,-0.850625 0.409847,-0.371182 0.974353,-0.579972 0.564506,-0.20879 1.268206,-0.20879 0.835159,0 1.484728,0.28612 0.649568,0.278386 1.028483,0.88929 0.378915,0.610904 0.378915,1.585256 v 3.727287 q 0,0.703699 0.0696,1.144478 0.07733,0.440778 0.224256,0.75783 v 0.13146 h -2.180695 q -0.146926,-0.347983 -0.224256,-0.866092 -0.0696,-0.525841 -0.0696,-1.059415 z m 0.26292,-3.185979 0.0077,1.299137 h -0.796494 q -0.309319,0 -0.541308,0.100529 -0.224255,0.100528 -0.378915,0.286119 -0.154659,0.177858 -0.231988,0.41758 -0.0696,0.239722 -0.0696,0.510375 0,0.301586 0.08506,0.510375 0.08506,0.20879 0.255187,0.317052 0.170125,0.108261 0.402114,0.108261 0.355716,0 0.618637,-0.146926 0.26292,-0.146926 0.386648,-0.355716 0.13146,-0.20879 0.08506,-0.386648 l 0.49491,0.842892 q -0.0928,0.28612 -0.255188,0.595438 -0.154659,0.309319 -0.394381,0.572239 -0.239722,0.262921 -0.595438,0.433046 -0.347983,0.162392 -0.827426,0.162392 -0.672768,0 -1.229541,-0.309318 -0.556773,-0.309319 -0.881557,-0.866092 -0.317051,-0.556773 -0.317051,-1.322336 0,-0.634102 0.201056,-1.144478 0.20879,-0.518108 0.618637,-0.873824 0.409847,-0.363449 1.036217,-0.556773 0.626369,-0.193324 1.469262,-0.193324 z m 7.222582,2.853462 q 0,-0.216523 -0.146926,-0.386648 -0.146927,-0.170125 -0.463978,-0.347983 -0.317051,-0.185591 -0.842892,-0.409847 -0.572239,-0.231989 -1.013018,-0.479444 -0.440779,-0.247454 -0.750097,-0.54904 -0.301586,-0.301585 -0.456245,-0.688233 -0.154659,-0.386648 -0.154659,-0.881557 0,-0.533574 0.193324,-0.982086 0.201057,-0.456245 0.572239,-0.796495 0.371182,-0.347983 0.904756,-0.541307 0.541307,-0.201057 1.214075,-0.201057 0.943421,0 1.616188,0.332517 0.680501,0.324785 1.04395,0.912489 0.363449,0.587705 0.363449,1.368734 h -2.165229 q 0,-0.278386 -0.08506,-0.494909 -0.08506,-0.224256 -0.278387,-0.347983 -0.185591,-0.123728 -0.502642,-0.123728 -0.231989,0 -0.41758,0.100529 -0.177858,0.100528 -0.286119,0.270653 -0.100529,0.162393 -0.100529,0.386648 0,0.170125 0.0696,0.301586 0.07733,0.13146 0.239721,0.255187 0.162393,0.123728 0.433046,0.262921 0.278387,0.13146 0.680501,0.293852 0.835159,0.309319 1.368733,0.665035 0.541307,0.355716 0.804228,0.835159 0.262921,0.471711 0.262921,1.167677 0,0.556773 -0.216523,1.013018 -0.20879,0.456244 -0.610904,0.788762 -0.402114,0.332517 -0.96662,0.510375 -0.556773,0.177858 -1.245006,0.177858 -1.013018,0 -1.708984,-0.402114 -0.695966,-0.402114 -1.051683,-1.028483 -0.355716,-0.634103 -0.355716,-1.314603 h 2.056967 q 0.01547,0.417579 0.15466,0.657301 0.146926,0.231989 0.39438,0.324784 0.247455,0.0928 0.549041,0.0928 0.301585,0 0.494909,-0.07733 0.201057,-0.08506 0.301585,-0.255187 0.100529,-0.177858 0.100529,-0.409847 z m 6.851404,2.412683 q -0.858359,0 -1.523393,-0.262921 -0.657302,-0.26292 -1.113546,-0.75783 -0.456245,-0.502642 -0.695967,-1.214074 -0.239721,-0.711432 -0.239721,-1.623921 v -0.688234 q 0,-1.02075 0.231989,-1.786313 0.231988,-0.773296 0.657301,-1.299137 0.425313,-0.525842 1.04395,-0.781029 0.626369,-0.262921 1.415131,-0.262921 0.788762,0 1.3842,0.262921 0.60317,0.255187 0.997551,0.773296 0.394381,0.510375 0.595438,1.268205 0.201057,0.75783 0.201057,1.763115 v 0.989818 H 78.940143 V 64.59148 h 3.479831 v -0.193324 q 0,-0.510375 -0.108261,-0.850625 -0.108261,-0.347983 -0.34025,-0.518108 -0.231989,-0.170125 -0.618637,-0.170125 -0.324784,0 -0.54904,0.13146 -0.224256,0.13146 -0.355716,0.409847 -0.13146,0.278386 -0.193324,0.726898 -0.06186,0.440778 -0.06186,1.059415 v 0.688234 q 0,0.579971 0.100529,0.974352 0.100528,0.386648 0.293852,0.634103 0.201057,0.239722 0.487177,0.347983 0.286119,0.100529 0.665034,0.100529 0.572239,0 1.028484,-0.201057 0.463977,-0.20879 0.788761,-0.564506 l 0.866092,1.314603 q -0.224256,0.293852 -0.618637,0.587705 -0.394381,0.293852 -0.943421,0.479443 -0.54904,0.185591 -1.268205,0.185591 z"
       id="text1-8"
       style="font-weight:bold;font-size:15.8371px;line-height:1.25;font-family:'Roboto Condensed';-inkscape-font-specification:'Roboto Condensed,  Bold';fill:#0060f5;fill-opacity:1;stroke-width:0.396042;stroke-dasharray:none"
       aria-label="database"
       transform="matrix(0.89131954,0,0,1.1219321,2.0444441e-6,2.0444441e-6)" />
  </g>
</svg>
