<?xml version="1.0" encoding="UTF-8" standalone="no"?>
<!-- Created with Inkscape (http://www.inkscape.org/) -->

<svg
   width="63.29977mm"
   height="63.47031mm"
   viewBox="0 0 100.68028 100.95153"
   version="1.1"
   id="svg1"
   xmlns:xlink="http://www.w3.org/1999/xlink"
   xmlns="http://www.w3.org/2000/svg"
   xmlns:svg="http://www.w3.org/2000/svg">
  <defs
     id="defs1">
    <linearGradient
       id="linearGradient1">
      <stop
         style="stop-color:#f59300;stop-opacity:1;"
         offset="0.08606797"
         id="stop1" />
      <stop
         style="stop-color:#fbe77a;stop-opacity:1;"
         offset="1"
         id="stop2" />
    </linearGradient>
    <linearGradient
       xlink:href="#linearGradient1"
       id="linearGradient3-1"
       x1="71.317589"
       y1="97.420563"
       x2="49.903812"
       y2="15.56449"
       gradientUnits="userSpaceOnUse" />
    <filter
       style="color-interpolation-filters:sRGB"
       id="filter3-9"
       x="-0.0019137605"
       y="-0.0019262802"
       width="1.0038275"
       height="1.0038526">
      <feGaussianBlur
         stdDeviation="0.081075826"
         id="feGaussianBlur3-84" />
    </filter>
  </defs>
  <g
     id="cdviz-grafana"
     transform="translate(-0.61667999,-0.62532773)">
    <ellipse
       style="fill:none;fill-rule:evenodd;stroke:#ffad33;stroke-width:6.49713;stroke-linejoin:round;stroke-dasharray:none;stroke-opacity:1"
       id="path1-4"
       cx="50.956814"
       cy="51.101097"
       rx="47.091576"
       ry="47.2272" />
    <path
       id="rect2-0"
       style="fill:url(#linearGradient3-1);fill-opacity:1;fill-rule:evenodd;stroke:none;stroke-width:0.318106;stroke-linejoin:round;stroke-dasharray:none;stroke-opacity:1;filter:url(#filter3-9)"
       d="m 29.048648,0.82686152 c -4.5125,0 -8.51009,0.85807848 -11.991958,2.57346268 C 13.574822,5.1157084 10.650258,7.5168482 8.282588,10.60454 5.9427727,13.692231 4.1599074,17.38832 2.9342899,21.692375 1.7365273,25.99643 1.137551,30.737709 1.137551,35.915051 c 0,5.270908 0.5294808,10.07401 1.5879687,14.409254 1.0584879,4.335243 2.6742353,8.046171 4.8469209,11.133863 1.8061717,2.534332 4.0031674,4.58799 6.5787274,6.176803 H 0.09041229 V 101.84123 H 101.76561 V 67.634971 H 84.528919 c 3.32242,-1.454208 6.15595,-3.508169 8.488071,-6.176803 2.5348,-2.931748 4.470717,-6.565192 5.807757,-10.900435 1.337033,-4.366433 2.005513,-9.434131 2.005513,-15.20406 0,-5.48923 -0.66848,-10.323654 -2.005513,-14.502954 C 97.51556,16.671419 95.649139,13.178104 93.22576,10.371112 90.80238,7.5329308 87.863753,5.3963873 84.409739,3.9617023 80.955727,2.5270174 77.09795,1.8098897 72.836144,1.8098897 H 55.830413 V 67.634971 H 42.710768 v -6.831882 c -2.172686,0.717343 -4.372524,1.356987 -6.60092,1.918385 -2.228395,0.53021 -4.58211,0.795628 -7.0612,0.795628 -3.286883,0 -6.156015,-0.608321 -8.60725,-1.824684 -2.451236,-1.216364 -4.498841,-2.994343 -6.142283,-5.333504 -1.643441,-2.33916 -2.882763,-5.208492 -3.718411,-8.608072 C 9.7729105,44.320073 9.3683575,40.40555 9.3683575,36.007929 c 0,-4.272866 0.4599856,-8.109083 1.3791985,-11.508663 0.947069,-3.399579 2.269948,-6.284573 3.9691,-8.654922 1.727006,-2.37035 3.802739,-4.17883 6.226119,-5.426382 2.42338,-1.2787409 5.125394,-1.9183845 8.105873,-1.9183845 2.618365,0 4.958016,0.3585638 7.019282,1.0759063 2.061265,0.7173422 3.969058,1.5754212 5.72392,2.5734622 L 45.050802,4.8502086 C 42.850261,3.5402788 40.384861,2.5428934 37.655076,1.8567397 34.925292,1.170586 32.056982,0.82686152 29.048648,0.82686152 Z M 63.602583,9.2483557 h 8.397658 c 3.259028,0 6.170351,0.5300149 8.733006,1.5904343 2.562655,1.02923 4.721124,2.620097 6.475986,4.772125 1.754861,2.152028 3.091805,4.896071 4.011018,8.233273 0.919213,3.306013 1.379198,7.236198 1.379198,11.789763 0,8.951187 -1.866424,15.70372 -5.598986,20.257285 -3.732563,4.553565 -9.275582,6.830238 -16.629287,6.830238 H 63.602583 Z M 52.725984,71.835033 c 0.426404,0 0.824363,0.03648 1.19262,0.109317 0.387641,0.06243 0.716612,0.165838 0.98796,0.311511 0.290731,0.145673 0.513994,0.333287 0.669051,0.5622 0.174438,0.218509 0.261374,0.484299 0.261374,0.79645 0,0.603504 -0.3102,1.05608 -0.930425,1.357829 -0.600843,0.291344 -1.327771,0.436445 -2.18058,0.436445 -0.872191,0 -1.608504,-0.145101 -2.209348,-0.436445 -0.581461,-0.291345 -0.872067,-0.743921 -0.872067,-1.357829 0,-0.624307 0.290606,-1.07771 0.872067,-1.35865 0.600844,-0.280939 1.337157,-0.420828 2.209348,-0.420828 z M 1.0052203,78.249374 h 5.4658341 l 5.7855646,9.536854 c 0.213203,0.34337 0.464623,0.785522 0.755354,1.326595 0.290731,0.541066 0.582159,1.092664 0.87289,1.654544 0.290729,0.561882 0.552358,1.092633 0.784943,1.592079 0.251965,0.499449 0.416451,0.879063 0.49398,1.139195 h 0.203838 c 0.09691,-0.260132 0.261395,-0.639746 0.49398,-1.139195 0.232585,-0.499446 0.494212,-1.030197 0.784943,-1.592079 0.290731,-0.56188 0.581337,-1.113478 0.872068,-1.654544 0.290731,-0.541073 0.542974,-0.983225 0.756175,-1.326595 l 5.785565,-9.536854 h 5.465834 l -10.9029,17.13724 h -6.71599 z m 49.0462037,0 h 5.291585 v 17.13724 h -5.291585 z m 29.16043,0 h 20.002488 v 2.279212 L 83.97987,93.248774 h 15.757219 v 2.13784 H 78.252662 v -1.95044 L 93.835632,80.388036 H 79.211854 Z"
       transform="matrix(0.5034542,0,0,0.5034542,24.168801,13.224868)" />
    <path
       d="m 30.504003,67.098868 h 2.15306 v 9.171693 q 0,1.254539 -0.483167,2.05134 -0.474691,0.805278 -1.330828,1.178249 -0.847661,0.381448 -1.983527,0.381448 -0.432307,0 -0.974811,-0.118673 -0.534026,-0.118673 -1.034146,-0.364494 -0.50012,-0.237345 -0.822231,-0.57641 l 0.805278,-1.644462 q 0.330587,0.330587 0.864614,0.559456 0.534026,0.237345 1.0511,0.237345 0.50012,0 0.830708,-0.161056 0.339064,-0.152579 0.508596,-0.525549 0.178009,-0.372971 0.178009,-1.000241 V 69.226497 Z M 25.38413,72.006826 V 71.39651 q 0,-1.118913 0.211915,-1.958097 0.211916,-0.839185 0.610316,-1.398641 0.398401,-0.559457 0.974811,-0.830708 0.584886,-0.279728 1.305398,-0.279728 0.754418,0 1.263015,0.330587 0.508597,0.322112 0.822231,0.906998 0.322111,0.584886 0.491644,1.381688 0.178008,0.796801 0.271251,1.746181 v 0.881568 q -0.09324,0.898521 -0.305158,1.678369 -0.203438,0.779848 -0.542503,1.356258 -0.339064,0.576409 -0.830708,0.906997 -0.491643,0.322111 -1.186725,0.322111 -0.712036,0 -1.288445,-0.288204 -0.567933,-0.288205 -0.974811,-0.847661 -0.3984,-0.567933 -0.610316,-1.390165 -0.211915,-0.830708 -0.211915,-1.907237 z m 2.381928,-0.610316 v 0.610316 q 0,0.644222 0.07629,1.110436 0.08477,0.457737 0.254299,0.754418 0.169532,0.288205 0.432307,0.432307 0.271251,0.135626 0.635746,0.135626 0.517073,0 0.822231,-0.237345 0.313635,-0.245822 0.457737,-0.669652 0.152579,-0.432307 0.169532,-0.991764 v -1.602079 q -0.0085,-0.466214 -0.110196,-0.839185 -0.09324,-0.372971 -0.262775,-0.635746 -0.169532,-0.262775 -0.440783,-0.406877 -0.262775,-0.144102 -0.618793,-0.144102 -0.364494,0 -0.627269,0.144102 -0.262775,0.144102 -0.440784,0.44926 -0.169532,0.296682 -0.262775,0.771372 -0.08477,0.466214 -0.08477,1.118913 z m 9.027591,-2.254779 v 7.12883 h -2.373451 v -9.171693 h 2.237825 z m 2.161536,-2.110676 -0.03391,2.364975 q -0.161056,-0.03391 -0.389925,-0.05086 -0.220391,-0.01695 -0.389924,-0.01695 -0.3984,0 -0.678129,0.127149 -0.279728,0.118672 -0.466213,0.364494 -0.178009,0.237345 -0.271252,0.593363 -0.09324,0.356018 -0.110196,0.805278 l -0.44926,-0.169532 q 0,-0.898521 0.135626,-1.644463 0.144102,-0.754418 0.42383,-1.305398 0.279728,-0.559456 0.669653,-0.864614 0.3984,-0.305158 0.89852,-0.305158 0.169533,0 0.356018,0.03391 0.194962,0.02543 0.305158,0.06781 z m 5.001201,7.12883 v -4.238306 q 0,-0.415354 -0.101719,-0.661175 -0.09324,-0.245822 -0.288205,-0.356018 -0.186485,-0.118672 -0.457737,-0.118672 -0.305158,0 -0.508597,0.127149 -0.203438,0.127149 -0.305158,0.364494 -0.09324,0.237345 -0.09324,0.567933 H 39.8198 q 0,-0.593363 0.228868,-1.118913 0.228869,-0.534026 0.669653,-0.932427 0.44926,-0.406877 1.068053,-0.635746 0.618792,-0.228868 1.390164,-0.228868 0.915474,0 1.627509,0.313634 0.712036,0.305158 1.12739,0.974811 0.415354,0.669652 0.415354,1.737705 v 4.085726 q 0,0.771372 0.07629,1.254539 0.08477,0.483167 0.245822,0.830708 v 0.144102 h -2.390405 q -0.161055,-0.381447 -0.245821,-0.94938 -0.07629,-0.57641 -0.07629,-1.161296 z m 0.288205,-3.492364 0.0085,1.424071 H 43.38 q -0.339065,0 -0.593363,0.110196 -0.245822,0.110196 -0.415354,0.313634 -0.169532,0.194963 -0.254298,0.457737 -0.07629,0.262775 -0.07629,0.559457 0,0.330588 0.09324,0.559456 0.09324,0.228869 0.279728,0.347541 0.186485,0.118673 0.440784,0.118673 0.389924,0 0.678129,-0.161056 0.288204,-0.161055 0.42383,-0.389924 0.144103,-0.228868 0.09324,-0.423831 l 0.542503,0.923951 q -0.101719,0.313635 -0.279728,0.652699 -0.169532,0.339065 -0.432307,0.627269 -0.262775,0.288205 -0.652699,0.474691 -0.381448,0.178008 -0.906998,0.178008 -0.737465,0 -1.347781,-0.339064 -0.610316,-0.339064 -0.966334,-0.94938 -0.347541,-0.610316 -0.347541,-1.449501 0,-0.695082 0.220392,-1.254538 0.228869,-0.567933 0.678129,-0.957858 0.44926,-0.3984 1.135866,-0.610316 0.686606,-0.211915 1.610556,-0.211915 z m 6.789765,5.60304 h -2.381927 v -9.968495 q 0,-1.059576 0.364494,-1.771611 0.364494,-0.712036 1.02567,-1.085007 0.669652,-0.37297 1.585126,-0.37297 0.296682,0 0.559457,0.05086 0.271251,0.04238 0.525549,0.118673 l -0.02543,1.890284 q -0.110196,-0.03391 -0.262775,-0.05086 -0.152579,-0.01695 -0.322112,-0.01695 -0.339064,0 -0.584886,0.144103 -0.237345,0.144102 -0.364494,0.415354 -0.118673,0.271251 -0.118673,0.678128 z m 1.432548,-9.171693 v 1.788565 h -4.933388 v -1.788565 z m 5.357217,7.061017 v -4.238306 q 0,-0.415354 -0.101719,-0.661175 -0.09324,-0.245822 -0.288205,-0.356018 -0.186485,-0.118672 -0.457737,-0.118672 -0.305158,0 -0.508597,0.127149 -0.203438,0.127149 -0.305158,0.364494 -0.09324,0.237345 -0.09324,0.567933 h -2.381928 q 0,-0.593363 0.228868,-1.118913 0.228869,-0.534026 0.669653,-0.932427 0.44926,-0.406877 1.068053,-0.635746 0.618792,-0.228868 1.390164,-0.228868 0.915474,0 1.627509,0.313634 0.712036,0.305158 1.12739,0.974811 0.415353,0.669652 0.415353,1.737705 v 4.085726 q 0,0.771372 0.07629,1.254539 0.08477,0.483167 0.245822,0.830708 v 0.144102 h -2.390405 q -0.161055,-0.381447 -0.245821,-0.94938 -0.07629,-0.57641 -0.07629,-1.161296 z m 0.288205,-3.492364 0.0085,1.424071 h -0.87309 q -0.339065,0 -0.593363,0.110196 -0.245822,0.110196 -0.415354,0.313634 -0.169532,0.194963 -0.254299,0.457737 -0.07629,0.262775 -0.07629,0.559457 0,0.330588 0.09324,0.559456 0.09324,0.228869 0.279728,0.347541 0.186485,0.118673 0.440784,0.118673 0.389924,0 0.678129,-0.161056 0.288204,-0.161055 0.42383,-0.389924 0.144102,-0.228868 0.09324,-0.423831 l 0.542503,0.923951 q -0.101719,0.313635 -0.279728,0.652699 -0.169532,0.339065 -0.432307,0.627269 -0.262775,0.288205 -0.652699,0.474691 -0.381448,0.178008 -0.906998,0.178008 -0.737465,0 -1.347781,-0.339064 -0.610316,-0.339064 -0.966334,-0.94938 -0.347541,-0.610316 -0.347541,-1.449501 0,-0.695082 0.220392,-1.254538 0.228869,-0.567933 0.678129,-0.957858 0.44926,-0.3984 1.135866,-0.610316 0.686605,-0.211915 1.610556,-0.211915 z m 6.179449,-1.610556 v 7.213596 h -2.381927 v -9.171693 h 2.220872 z m -0.356017,2.314115 -0.635746,0.01695 q -0.01695,-1.034146 0.194962,-1.856378 0.220392,-0.822231 0.618793,-1.398641 0.406877,-0.584886 0.966333,-0.890044 0.559457,-0.313634 1.263015,-0.313634 0.534027,0 0.974811,0.186485 0.44926,0.186486 0.771371,0.593363 0.322111,0.406877 0.50012,1.07653 0.178009,0.669652 0.178009,1.652939 v 5.831908 h -2.381928 v -5.848862 q 0,-0.593362 -0.118672,-0.915474 -0.118673,-0.330587 -0.356018,-0.457737 -0.228868,-0.135625 -0.593363,-0.135625 -0.339064,0 -0.601839,0.186485 -0.262775,0.186486 -0.440784,0.52555 -0.169532,0.330588 -0.262775,0.779848 -0.08477,0.449261 -0.07629,0.966334 z m 10.612719,2.788805 v -4.238306 q 0,-0.415354 -0.10172,-0.661175 -0.09324,-0.245822 -0.288204,-0.356018 -0.186486,-0.118672 -0.457737,-0.118672 -0.305158,0 -0.508597,0.127149 -0.203439,0.127149 -0.305158,0.364494 -0.09324,0.237345 -0.09324,0.567933 h -2.381927 q 0,-0.593363 0.228868,-1.118913 0.228869,-0.534026 0.669652,-0.932427 0.449261,-0.406877 1.068053,-0.635746 0.618793,-0.228868 1.390165,-0.228868 0.915474,0 1.627509,0.313634 0.712035,0.305158 1.127389,0.974811 0.415354,0.669652 0.415354,1.737705 v 4.085726 q 0,0.771372 0.07629,1.254539 0.08477,0.483167 0.245821,0.830708 v 0.144102 h -2.390404 q -0.161056,-0.381447 -0.245822,-0.94938 -0.07629,-0.57641 -0.07629,-1.161296 z m 0.288205,-3.492364 0.0085,1.424071 h -0.873091 q -0.339064,0 -0.593363,0.110196 -0.245821,0.110196 -0.415354,0.313634 -0.169532,0.194963 -0.254298,0.457737 -0.07629,0.262775 -0.07629,0.559457 0,0.330588 0.09324,0.559456 0.09324,0.228869 0.279729,0.347541 0.186485,0.118673 0.440783,0.118673 0.389924,0 0.678129,-0.161056 0.288205,-0.161055 0.423831,-0.389924 0.144102,-0.228868 0.09324,-0.423831 l 0.542503,0.923951 q -0.10172,0.313635 -0.279729,0.652699 -0.169532,0.339065 -0.432307,0.627269 -0.262775,0.288205 -0.652699,0.474691 -0.381447,0.178008 -0.906997,0.178008 -0.737465,0 -1.347781,-0.339064 -0.610316,-0.339064 -0.966334,-0.94938 -0.347541,-0.610316 -0.347541,-1.449501 0,-0.695082 0.220392,-1.254538 0.228868,-0.567933 0.678129,-0.957858 0.44926,-0.3984 1.135866,-0.610316 0.686605,-0.211915 1.610556,-0.211915 z"
       id="text1-8-4"
       style="font-weight:bold;font-size:17.3601px;line-height:1.25;font-family:'Roboto Condensed';-inkscape-font-specification:'Roboto Condensed,  Bold';fill:#f59300;stroke-width:0.434003"
       transform="matrix(0.97703629,0,0,1.0235034,-5.8451495e-8,-1.3430884e-6)"
       aria-label="grafana" />
  </g>
</svg>
