<?xml version="1.0" encoding="UTF-8" standalone="no"?>
<!-- Created with Inkscape (http://www.inkscape.org/) -->

<svg
   width="63.29977mm"
   height="63.47031mm"
   viewBox="0 0 100.68028 100.95153"
   version="1.1"
   id="svg1"
   xmlns:xlink="http://www.w3.org/1999/xlink"
   xmlns="http://www.w3.org/2000/svg"
   xmlns:svg="http://www.w3.org/2000/svg">
  <defs
     id="defs1">
    <linearGradient
       id="linearGradient6">
      <stop
         style="stop-color:#f56100;stop-opacity:1;"
         offset="0.08606797"
         id="stop5" />
      <stop
         style="stop-color:#ffac75;stop-opacity:1;"
         offset="1"
         id="stop6" />
    </linearGradient>
    <linearGradient
       xlink:href="#linearGradient6"
       id="linearGradient3-3"
       x1="71.317589"
       y1="97.420563"
       x2="49.903812"
       y2="15.56449"
       gradientUnits="userSpaceOnUse" />
    <filter
       style="color-interpolation-filters:sRGB"
       id="filter3-8"
       x="-0.0019137605"
       y="-0.0019262802"
       width="1.0038275"
       height="1.0038526">
      <feGaussianBlur
         stdDeviation="0.081075826"
         id="feGaussianBlur3-8" />
    </filter>
  </defs>
  <g
     id="cdviz-collector"
     style="display:inline"
     transform="translate(-0.39520915,-0.49914773)">
    <ellipse
       style="fill:none;fill-rule:evenodd;stroke:#ff8433;stroke-width:6.49713;stroke-linejoin:round;stroke-dasharray:none;stroke-opacity:1"
       id="path1-8"
       cx="117.22484"
       cy="164.60405"
       rx="47.091576"
       ry="47.2272"
       transform="translate(-66.489485,-113.62913)" />
    <path
       id="rect2-9"
       style="display:inline;fill:url(#linearGradient3-3);fill-opacity:1;fill-rule:evenodd;stroke:none;stroke-width:0.318106;stroke-linejoin:round;stroke-dasharray:none;stroke-opacity:1;filter:url(#filter3-8)"
       d="m 29.048648,0.82686152 c -4.5125,0 -8.51009,0.85807848 -11.991958,2.57346268 C 13.574822,5.1157084 10.650258,7.5168482 8.282588,10.60454 5.9427727,13.692231 4.1599074,17.38832 2.9342899,21.692375 1.7365273,25.99643 1.137551,30.737709 1.137551,35.915051 c 0,5.270908 0.5294808,10.07401 1.5879687,14.409254 1.0584879,4.335243 2.6742353,8.046171 4.8469209,11.133863 1.8061717,2.534332 4.0031674,4.58799 6.5787274,6.176803 H 0.09041229 V 101.84123 H 101.76561 V 67.634971 H 84.528919 c 3.32242,-1.454208 6.15595,-3.508169 8.488071,-6.176803 2.5348,-2.931748 4.470717,-6.565192 5.807757,-10.900435 1.337033,-4.366433 2.005513,-9.434131 2.005513,-15.20406 0,-5.48923 -0.66848,-10.323654 -2.005513,-14.502954 C 97.51556,16.671419 95.649139,13.178104 93.22576,10.371112 90.80238,7.5329308 87.863753,5.3963873 84.409739,3.9617023 80.955727,2.5270174 77.09795,1.8098897 72.836144,1.8098897 H 55.830413 V 67.634971 H 42.710768 v -6.831882 c -2.172686,0.717343 -4.372524,1.356987 -6.60092,1.918385 -2.228395,0.53021 -4.58211,0.795628 -7.0612,0.795628 -3.286883,0 -6.156015,-0.608321 -8.60725,-1.824684 -2.451236,-1.216364 -4.498841,-2.994343 -6.142283,-5.333504 -1.643441,-2.33916 -2.882763,-5.208492 -3.718411,-8.608072 C 9.7729105,44.320073 9.3683575,40.40555 9.3683575,36.007929 c 0,-4.272866 0.4599856,-8.109083 1.3791985,-11.508663 0.947069,-3.399579 2.269948,-6.284573 3.9691,-8.654922 1.727006,-2.37035 3.802739,-4.17883 6.226119,-5.426382 2.42338,-1.2787409 5.125394,-1.9183845 8.105873,-1.9183845 2.618365,0 4.958016,0.3585638 7.019282,1.0759063 2.061265,0.7173422 3.969058,1.5754212 5.72392,2.5734622 L 45.050802,4.8502086 C 42.850261,3.5402788 40.384861,2.5428934 37.655076,1.8567397 34.925292,1.170586 32.056982,0.82686152 29.048648,0.82686152 Z M 63.602583,9.2483557 h 8.397658 c 3.259028,0 6.170351,0.5300149 8.733006,1.5904343 2.562655,1.02923 4.721124,2.620097 6.475986,4.772125 1.754861,2.152028 3.091805,4.896071 4.011018,8.233273 0.919213,3.306013 1.379198,7.236198 1.379198,11.789763 0,8.951187 -1.866424,15.70372 -5.598986,20.257285 -3.732563,4.553565 -9.275582,6.830238 -16.629287,6.830238 H 63.602583 Z M 52.725984,71.835033 c 0.426404,0 0.824363,0.03648 1.19262,0.109317 0.387641,0.06243 0.716612,0.165838 0.98796,0.311511 0.290731,0.145673 0.513994,0.333287 0.669051,0.5622 0.174438,0.218509 0.261374,0.484299 0.261374,0.79645 0,0.603504 -0.3102,1.05608 -0.930425,1.357829 -0.600843,0.291344 -1.327771,0.436445 -2.18058,0.436445 -0.872191,0 -1.608504,-0.145101 -2.209348,-0.436445 -0.581461,-0.291345 -0.872067,-0.743921 -0.872067,-1.357829 0,-0.624307 0.290606,-1.07771 0.872067,-1.35865 0.600844,-0.280939 1.337157,-0.420828 2.209348,-0.420828 z M 1.0052203,78.249374 h 5.4658341 l 5.7855646,9.536854 c 0.213203,0.34337 0.464623,0.785522 0.755354,1.326595 0.290731,0.541066 0.582159,1.092664 0.87289,1.654544 0.290729,0.561882 0.552358,1.092633 0.784943,1.592079 0.251965,0.499449 0.416451,0.879063 0.49398,1.139195 h 0.203838 c 0.09691,-0.260132 0.261395,-0.639746 0.49398,-1.139195 0.232585,-0.499446 0.494212,-1.030197 0.784943,-1.592079 0.290731,-0.56188 0.581337,-1.113478 0.872068,-1.654544 0.290731,-0.541073 0.542974,-0.983225 0.756175,-1.326595 l 5.785565,-9.536854 h 5.465834 l -10.9029,17.13724 h -6.71599 z m 49.0462037,0 h 5.291585 v 17.13724 h -5.291585 z m 29.16043,0 h 20.002488 v 2.279212 L 83.97987,93.248774 h 15.757219 v 2.13784 H 78.252662 v -1.95044 L 93.835632,80.388036 H 79.211854 Z"
       transform="matrix(0.5034542,0,0,0.5034542,23.947339,13.098693)" />
    <path
       d="m 102.10241,173.12593 q 0.30883,0 0.53054,-0.12669 0.22964,-0.1267 0.34842,-0.41176 0.11878,-0.28507 0.1267,-0.73642 h 2.08256 q 0,0.96605 -0.41176,1.6708 -0.40384,0.69683 -1.09275,1.07692 -0.681,0.37217 -1.54411,0.37217 -0.86312,0 -1.50452,-0.27715 -0.641398,-0.27715 -1.061078,-0.80769 -0.411763,-0.53054 -0.625562,-1.29072 -0.205882,-0.76809 -0.205882,-1.7579 v -0.62557 q 0,-0.97397 0.205882,-1.74207 0.213799,-0.76809 0.625562,-1.29863 0.41968,-0.53054 1.053158,-0.80769 0.6414,-0.27715 1.50452,-0.27715 0.92646,0 1.60746,0.38801 0.68099,0.38009 1.06108,1.12443 0.388,0.74434 0.388,1.83709 h -2.08256 q -0.008,-0.49095 -0.11878,-0.81561 -0.10294,-0.33257 -0.32466,-0.50678 -0.2138,-0.18213 -0.57013,-0.18213 -0.37217,0 -0.60181,0.15837 -0.22172,0.15046 -0.3405,0.44344 -0.11085,0.28507 -0.15045,0.71267 -0.0396,0.4276 -0.0396,0.96605 v 0.62557 q 0,0.57805 0.0317,1.00565 0.0396,0.41968 0.15046,0.71266 0.11877,0.28507 0.34049,0.4276 0.22964,0.14253 0.61764,0.14253 z m 4.10971,-2.30428 v -0.57805 q 0,-1.00565 0.23755,-1.78167 0.24548,-0.77601 0.69683,-1.29863 0.45136,-0.53054 1.08484,-0.79977 0.6414,-0.27715 1.43325,-0.27715 0.79977,0 1.43325,0.27715 0.6414,0.26923 1.09275,0.79977 0.45928,0.52262 0.70475,1.29863 0.24547,0.77602 0.24547,1.78167 v 0.57805 q 0,0.99773 -0.24547,1.77374 -0.24547,0.77602 -0.70475,1.30656 -0.45135,0.53054 -1.08483,0.79977 -0.63348,0.26923 -1.42533,0.26923 -0.79186,0 -1.43325,-0.26923 -0.63348,-0.26923 -1.09276,-0.79977 -0.45927,-0.53054 -0.70475,-1.30656 -0.23755,-0.77601 -0.23755,-1.77374 z m 2.21718,-0.57805 v 0.57805 q 0,0.59389 0.0792,1.02941 0.0871,0.43551 0.24547,0.72058 0.16629,0.28507 0.39593,0.41968 0.22963,0.13461 0.53054,0.13461 0.3009,0 0.53845,-0.13461 0.23756,-0.13461 0.38801,-0.41968 0.15837,-0.28507 0.22964,-0.72058 0.0792,-0.43552 0.0792,-1.02941 v -0.57805 q 0,-0.57805 -0.0871,-1.01357 -0.0871,-0.44344 -0.24547,-0.72058 -0.15838,-0.28507 -0.39593,-0.4276 -0.22964,-0.15046 -0.52262,-0.15046 -0.29299,0 -0.52262,0.15046 -0.22172,0.14253 -0.38801,0.4276 -0.15837,0.27714 -0.24547,0.72058 -0.0792,0.43552 -0.0792,1.01357 z m 8.43321,-7.59385 v 12.16283 h -2.2251 v -12.16283 z m 4.08595,0 v 12.16283 h -2.2251 v -12.16283 z m 5.21038,12.3212 q -0.87896,0 -1.55995,-0.26923 -0.67307,-0.26923 -1.14026,-0.77602 -0.4672,-0.5147 -0.71267,-1.2432 -0.24547,-0.7285 -0.24547,-1.66289 v -0.70475 q 0,-1.04524 0.23755,-1.82917 0.23756,-0.79185 0.67307,-1.33031 0.43552,-0.53846 1.069,-0.79977 0.6414,-0.26923 1.44909,-0.26923 0.80769,0 1.41741,0.26923 0.61765,0.26131 1.02149,0.79185 0.40384,0.52262 0.60972,1.29864 0.20589,0.77601 0.20589,1.80542 v 1.01357 h -5.74092 v -1.55995 h 3.56333 v -0.19796 q 0,-0.52262 -0.11086,-0.87104 -0.11086,-0.35633 -0.34842,-0.53054 -0.23755,-0.17421 -0.63348,-0.17421 -0.33257,0 -0.56221,0.13462 -0.22964,0.13461 -0.36425,0.41968 -0.13462,0.28507 -0.19797,0.74434 -0.0633,0.45135 -0.0633,1.08483 v 0.70475 q 0,0.59389 0.10294,0.99773 0.10294,0.39593 0.3009,0.64932 0.20588,0.24547 0.49887,0.35633 0.29298,0.10294 0.68099,0.10294 0.58597,0 1.05316,-0.20588 0.47511,-0.2138 0.80769,-0.57805 l 0.88687,1.34615 q -0.22964,0.3009 -0.63348,0.6018 -0.40384,0.30091 -0.96606,0.49095 -0.56221,0.19005 -1.29863,0.19005 z m 7.4038,-1.84502 q 0.30882,0 0.53054,-0.12669 0.22964,-0.1267 0.34841,-0.41176 0.11878,-0.28507 0.1267,-0.73642 h 2.08257 q 0,0.96605 -0.41177,1.6708 -0.40384,0.69683 -1.09275,1.07692 -0.68099,0.37217 -1.54411,0.37217 -0.86312,0 -1.50451,-0.27715 -0.6414,-0.27715 -1.06108,-0.80769 -0.41177,-0.53054 -0.62557,-1.29072 -0.20588,-0.76809 -0.20588,-1.7579 v -0.62557 q 0,-0.97397 0.20588,-1.74207 0.2138,-0.76809 0.62557,-1.29863 0.41968,-0.53054 1.05316,-0.80769 0.6414,-0.27715 1.50451,-0.27715 0.92647,0 1.60746,0.38801 0.68099,0.38009 1.06108,1.12443 0.38801,0.74434 0.38801,1.83709 h -2.08257 q -0.008,-0.49095 -0.11878,-0.81561 -0.10294,-0.33257 -0.32466,-0.50678 -0.2138,-0.18213 -0.57013,-0.18213 -0.37217,0 -0.60181,0.15837 -0.22171,0.15046 -0.34049,0.44344 -0.11086,0.28507 -0.15045,0.71267 -0.0396,0.4276 -0.0396,0.96605 v 0.62557 q 0,0.57805 0.0317,1.00565 0.0396,0.41968 0.15045,0.71266 0.11878,0.28507 0.3405,0.4276 0.22963,0.14253 0.61764,0.14253 z m 8.10063,-6.88118 v 1.67081 h -4.37101 v -1.67081 z m -3.36536,-2.11424 h 2.20926 v 8.06896 q 0,0.34841 0.0713,0.54638 0.0713,0.19004 0.21379,0.26923 0.15046,0.0713 0.38801,0.0713 0.17421,0 0.31674,-0.0158 0.14253,-0.0238 0.2138,-0.0475 v 1.73416 q -0.26131,0.10294 -0.55429,0.15837 -0.28507,0.0554 -0.681,0.0554 -0.66515,0 -1.1561,-0.24548 -0.48303,-0.25339 -0.75226,-0.8156 -0.26922,-0.56222 -0.26922,-1.47285 z m 4.1097,6.69114 v -0.57805 q 0,-1.00565 0.23756,-1.78167 0.24547,-0.77601 0.69682,-1.29863 0.45136,-0.53054 1.08484,-0.79977 0.6414,-0.27715 1.43325,-0.27715 0.79977,0 1.43325,0.27715 0.6414,0.26923 1.09275,0.79977 0.45928,0.52262 0.70475,1.29863 0.24547,0.77602 0.24547,1.78167 v 0.57805 q 0,0.99773 -0.24547,1.77374 -0.24547,0.77602 -0.70475,1.30656 -0.45135,0.53054 -1.08483,0.79977 -0.63348,0.26923 -1.42533,0.26923 -0.79185,0 -1.43325,-0.26923 -0.63348,-0.26923 -1.09276,-0.79977 -0.45927,-0.53054 -0.70474,-1.30656 -0.23756,-0.77601 -0.23756,-1.77374 z m 2.21718,-0.57805 v 0.57805 q 0,0.59389 0.0792,1.02941 0.0871,0.43551 0.24547,0.72058 0.16629,0.28507 0.39593,0.41968 0.22963,0.13461 0.53054,0.13461 0.3009,0 0.53846,-0.13461 0.23755,-0.13461 0.388,-0.41968 0.15837,-0.28507 0.22964,-0.72058 0.0792,-0.43552 0.0792,-1.02941 v -0.57805 q 0,-0.57805 -0.0871,-1.01357 -0.0871,-0.44344 -0.24547,-0.72058 -0.15837,-0.28507 -0.39593,-0.4276 -0.22964,-0.15046 -0.52262,-0.15046 -0.29299,0 -0.52262,0.15046 -0.22172,0.14253 -0.38801,0.4276 -0.15837,0.27714 -0.24547,0.72058 -0.0792,0.43552 -0.0792,1.01357 z m 8.32235,-2.09049 v 6.65947 h -2.21718 v -8.56783 h 2.09048 z m 2.01922,-1.97171 -0.0317,2.20927 q -0.15045,-0.0317 -0.36425,-0.0475 -0.20588,-0.0158 -0.36425,-0.0158 -0.37217,0 -0.63348,0.11878 -0.26131,0.11086 -0.43552,0.34049 -0.16629,0.22172 -0.25339,0.5543 -0.0871,0.33258 -0.10294,0.75226 l -0.41968,-0.15837 q 0,-0.83936 0.1267,-1.53619 0.13461,-0.70475 0.39592,-1.21945 0.26131,-0.52262 0.62556,-0.80769 0.37217,-0.28507 0.83936,-0.28507 0.15838,0 0.33258,0.0317 0.18213,0.0237 0.28507,0.0633 z"
       id="text1"
       style="font-weight:bold;font-size:16.2171px;line-height:1.25;font-family:'Roboto Condensed';-inkscape-font-specification:'Roboto Condensed,  Bold';display:inline;fill:#f56100;stroke-width:0.405426"
       transform="matrix(0.91270446,0,0,1.0956449,-66.489491,-113.62913)"
       aria-label="collector" />
  </g>
</svg>
