<?xml version="1.0" encoding="UTF-8" standalone="no"?>
<!-- Created with Inkscape (http://www.inkscape.org/) -->

<svg
   width="63.299778mm"
   height="63.47031mm"
   viewBox="0 0 100.68029 100.95153"
   version="1.1"
   id="svg1"
   xmlns:xlink="http://www.w3.org/1999/xlink"
   xmlns="http://www.w3.org/2000/svg"
   xmlns:svg="http://www.w3.org/2000/svg">
  <defs
     id="defs1">
    <linearGradient
       id="linearGradient1">
      <stop
         style="stop-color:#f59300;stop-opacity:1;"
         offset="0.08606797"
         id="stop1" />
      <stop
         style="stop-color:#fbe77a;stop-opacity:1;"
         offset="1"
         id="stop2" />
    </linearGradient>
    <linearGradient
       xlink:href="#linearGradient1"
       id="linearGradient3-1-3"
       x1="71.317589"
       y1="97.420563"
       x2="49.903812"
       y2="15.56449"
       gradientUnits="userSpaceOnUse" />
    <filter
       style="color-interpolation-filters:sRGB"
       id="filter3-9-6"
       x="-0.0019137605"
       y="-0.0019262802"
       width="1.0038275"
       height="1.0038526">
      <feGaussianBlur
         stdDeviation="0.081075826"
         id="feGaussianBlur3-84-3" />
    </filter>
  </defs>
  <g
     id="cdviz-dashboard"
     transform="translate(-0.61666694,-0.6253328)">
    <path
       d="m 32.935393,63.862274 v -9.359489 h 2.027769 V 65.58696 l -1.83293,0.0072 z M 28.887071,61.957181 V 61.43761 q 0,-0.952546 0.158758,-1.666956 0.165974,-0.714409 0.490705,-1.190682 0.324732,-0.476274 0.793789,-0.707194 0.476273,-0.238137 1.089655,-0.238137 0.555652,0 0.974195,0.281435 0.42576,0.274218 0.721626,0.772139 0.295867,0.497922 0.476273,1.176251 0.180407,0.678328 0.25257,1.486549 v 0.750491 q -0.0866,0.764924 -0.267002,1.42882 -0.17319,0.663896 -0.476273,1.154601 -0.295867,0.490706 -0.71441,0.77214 -0.418543,0.274218 -0.974195,0.274218 -0.613382,0 -1.089655,-0.245353 -0.469057,-0.245353 -0.793789,-0.721626 -0.317515,-0.483489 -0.483489,-1.183466 -0.158758,-0.707194 -0.158758,-1.623659 z m 2.020553,-0.519571 v 0.519571 q 0,0.548436 0.05051,0.94533 0.05773,0.389678 0.180406,0.642247 0.129893,0.245353 0.339164,0.36803 0.209272,0.11546 0.519571,0.11546 0.404111,0 0.65668,-0.202056 0.252569,-0.209271 0.375245,-0.570084 0.129893,-0.368029 0.144325,-0.844302 v -1.363874 q -0.01443,-0.396894 -0.09381,-0.714409 -0.07938,-0.317516 -0.223704,-0.54122 -0.144325,-0.223704 -0.360813,-0.34638 -0.209272,-0.122677 -0.490706,-0.122677 -0.303083,0 -0.51957,0.122677 -0.209272,0.122676 -0.331948,0.382461 -0.122677,0.25257 -0.187623,0.65668 -0.05773,0.396894 -0.05773,0.952546 z m 9.013108,2.352501 v -3.60813 q 0,-0.353597 -0.0866,-0.562868 -0.07938,-0.209272 -0.245352,-0.303083 -0.158758,-0.101028 -0.389679,-0.101028 -0.259785,0 -0.432975,0.108244 -0.17319,0.108244 -0.259785,0.310299 -0.07938,0.202056 -0.07938,0.48349 h -2.027769 q 0,-0.505138 0.194839,-0.952546 0.194839,-0.454625 0.570084,-0.793789 0.382462,-0.34638 0.909249,-0.541219 0.526787,-0.19484 1.183467,-0.19484 0.779356,0 1.385521,0.267002 0.606166,0.259785 0.959763,0.82987 0.353597,0.570085 0.353597,1.479333 v 3.478238 q 0,0.656679 0.06495,1.068006 0.07216,0.411327 0.209272,0.707193 V 65.58696 H 40.19495 q -0.137109,-0.324732 -0.209271,-0.808221 -0.06495,-0.490706 -0.06495,-0.988628 z m 0.245353,-2.973099 0.0072,1.212332 H 39.43001 q -0.288651,0 -0.505138,0.09381 -0.209272,0.09381 -0.353597,0.267002 -0.144325,0.165974 -0.216488,0.389678 -0.06495,0.223704 -0.06495,0.476273 0,0.281434 0.07938,0.476273 0.07938,0.194839 0.238136,0.295867 0.158758,0.101027 0.375246,0.101027 0.331948,0 0.5773,-0.137109 0.245353,-0.137109 0.360813,-0.331948 0.122677,-0.194839 0.07938,-0.360813 l 0.461841,0.786573 q -0.08659,0.267001 -0.238137,0.555652 -0.144325,0.28865 -0.368029,0.534003 -0.223704,0.245353 -0.555652,0.404111 -0.324732,0.151541 -0.77214,0.151541 -0.627814,0 -1.147385,-0.28865 -0.519571,-0.288651 -0.822654,-0.808221 -0.295866,-0.519571 -0.295866,-1.233981 0,-0.591733 0.187623,-1.068006 0.194839,-0.48349 0.5773,-0.815438 0.382462,-0.339164 0.966979,-0.51957 0.584517,-0.180407 1.371089,-0.180407 z m 6.739987,2.6628 q 0,-0.202055 -0.137109,-0.360813 -0.137109,-0.158758 -0.432976,-0.324732 -0.295866,-0.17319 -0.786572,-0.382461 -0.534003,-0.216488 -0.94533,-0.447409 -0.411327,-0.23092 -0.699977,-0.512354 -0.281434,-0.281434 -0.425759,-0.642247 -0.144326,-0.360813 -0.144326,-0.822654 0,-0.497922 0.180407,-0.916465 0.187623,-0.425759 0.534003,-0.743275 0.346381,-0.324731 0.844303,-0.505138 0.505138,-0.187623 1.132952,-0.187623 0.880384,0 1.508199,0.3103 0.63503,0.303083 0.974195,0.851518 0.339164,0.548436 0.339164,1.277278 h -2.020553 q 0,-0.259785 -0.07938,-0.46184 -0.07938,-0.209272 -0.259785,-0.324732 -0.17319,-0.11546 -0.469057,-0.11546 -0.216488,0 -0.389678,0.09381 -0.165974,0.09381 -0.267002,0.252569 -0.09381,0.151542 -0.09381,0.360813 0,0.158758 0.06495,0.281434 0.07216,0.122677 0.223704,0.238137 0.151542,0.11546 0.404111,0.245353 0.259785,0.122676 0.635031,0.274218 0.779356,0.28865 1.277278,0.620598 0.505138,0.331948 0.750491,0.779356 0.245353,0.440192 0.245353,1.089655 0,0.519571 -0.202056,0.94533 -0.194839,0.42576 -0.570084,0.736059 -0.375246,0.310299 -0.902033,0.476273 -0.51957,0.165974 -1.161817,0.165974 -0.94533,0 -1.594794,-0.375245 -0.649463,-0.375246 -0.981411,-0.959763 -0.331948,-0.591733 -0.331948,-1.226764 h 1.919525 q 0.01443,0.389678 0.144325,0.613382 0.137109,0.216488 0.368029,0.303083 0.230921,0.0866 0.512355,0.0866 0.281434,0 0.461841,-0.07216 0.187622,-0.07938 0.281434,-0.238136 0.09381,-0.165974 0.09381,-0.382462 z m 5.217357,-8.977027 V 65.58696 H 50.102876 V 54.502785 Z m -0.288651,6.913177 -0.548435,0.01443 q 0,-0.822653 0.165974,-1.515414 0.165974,-0.692761 0.490705,-1.205116 0.331948,-0.512354 0.793789,-0.793788 0.469057,-0.281435 1.031925,-0.281435 0.483489,0 0.880384,0.165974 0.396894,0.165974 0.685544,0.519571 0.295867,0.353597 0.454625,0.938114 0.158757,0.577301 0.158757,1.399954 v 4.928706 H 53.920277 V 60.64382 q 0,-0.505138 -0.101027,-0.793789 -0.101028,-0.28865 -0.303083,-0.40411 -0.202055,-0.122677 -0.505138,-0.122677 -0.324732,0 -0.555652,0.158758 -0.223704,0.158758 -0.360813,0.447408 -0.137109,0.281434 -0.202056,0.663896 -0.05773,0.382462 -0.05773,0.822654 z m 5.599817,-6.913177 h 2.013336 v 9.272894 l -0.144325,1.811281 h -1.869011 z m 6.068874,6.920393 v 0.512354 q 0,0.952547 -0.151541,1.65974 -0.144325,0.707194 -0.454625,1.183467 -0.303082,0.476273 -0.779356,0.714409 -0.476273,0.238137 -1.125736,0.238137 -0.584517,0 -1.00306,-0.274218 -0.418543,-0.281434 -0.707194,-0.77214 -0.281434,-0.497922 -0.46184,-1.161817 -0.173191,-0.671113 -0.252569,-1.464901 v -0.757708 q 0.07216,-0.779356 0.245352,-1.450468 0.180407,-0.671112 0.461841,-1.161818 0.281434,-0.497921 0.699977,-0.772139 0.42576,-0.281435 1.00306,-0.281435 0.663896,0 1.140169,0.245353 0.476274,0.238137 0.779356,0.71441 0.3103,0.476273 0.454625,1.190683 0.151541,0.707193 0.151541,1.638091 z m -2.013336,0.512354 v -0.512354 q 0,-0.54122 -0.0433,-0.930898 -0.0433,-0.389678 -0.158757,-0.649463 -0.115461,-0.259785 -0.331948,-0.389678 -0.209272,-0.129893 -0.555652,-0.129893 -0.3103,0 -0.519571,0.122677 -0.209272,0.11546 -0.360813,0.34638 -0.144325,0.223704 -0.216488,0.534003 -0.06495,0.303083 -0.07216,0.671113 v 1.363873 q 0.0072,0.497922 0.122677,0.880383 0.11546,0.382462 0.368029,0.591734 0.259786,0.209271 0.692761,0.209271 0.339164,0 0.548436,-0.11546 0.209271,-0.11546 0.324732,-0.368029 0.122676,-0.252569 0.158757,-0.649464 0.0433,-0.40411 0.0433,-0.974195 z m 3.023611,0.01443 v -0.526787 q 0,-0.916465 0.216488,-1.623659 0.223704,-0.707193 0.63503,-1.183466 0.411327,-0.48349 0.988628,-0.728842 0.584517,-0.25257 1.306143,-0.25257 0.728842,0 1.306143,0.25257 0.584517,0.245352 0.995844,0.728842 0.418543,0.476273 0.642247,1.183466 0.223704,0.707194 0.223704,1.623659 v 0.526787 q 0,0.909249 -0.223704,1.616442 -0.223704,0.707194 -0.642247,1.190683 -0.411327,0.483489 -0.988628,0.728842 -0.5773,0.245353 -1.298926,0.245353 -0.721626,0 -1.306143,-0.245353 -0.577301,-0.245353 -0.995844,-0.728842 -0.418543,-0.483489 -0.642247,-1.190683 -0.216488,-0.707193 -0.216488,-1.616442 z m 2.020553,-0.526787 v 0.526787 q 0,0.541219 0.07216,0.938114 0.07938,0.396894 0.223704,0.656679 0.151542,0.259786 0.360813,0.382462 0.209272,0.122676 0.48349,0.122676 0.274217,0 0.490705,-0.122676 0.216488,-0.122676 0.353597,-0.382462 0.144325,-0.259785 0.209272,-0.656679 0.07216,-0.396895 0.07216,-0.938114 v -0.526787 q 0,-0.526787 -0.07938,-0.923681 -0.07938,-0.404111 -0.223704,-0.65668 -0.144325,-0.259785 -0.360813,-0.389678 -0.209271,-0.137109 -0.476273,-0.137109 -0.267002,0 -0.476273,0.137109 -0.202055,0.129893 -0.353597,0.389678 -0.144325,0.252569 -0.223704,0.65668 -0.07216,0.396894 -0.07216,0.923681 z m 9.005894,2.366933 v -3.60813 q 0,-0.353597 -0.08659,-0.562868 -0.07938,-0.209272 -0.245353,-0.303083 -0.158758,-0.101028 -0.389678,-0.101028 -0.259786,0 -0.432976,0.108244 -0.17319,0.108244 -0.259785,0.310299 -0.07938,0.202056 -0.07938,0.48349 H 72.01866 q 0,-0.505138 0.194839,-0.952546 0.194839,-0.454625 0.570084,-0.793789 0.382462,-0.34638 0.909249,-0.541219 0.526787,-0.19484 1.183467,-0.19484 0.779356,0 1.385522,0.267002 0.606165,0.259785 0.959762,0.82987 0.353597,0.570085 0.353597,1.479333 v 3.478238 q 0,0.656679 0.06495,1.068006 0.07216,0.411327 0.209272,0.707193 v 0.122677 h -2.034985 q -0.137109,-0.324732 -0.209272,-0.808221 -0.06495,-0.490706 -0.06495,-0.988628 z m 0.245353,-2.973099 0.0072,1.212332 h -0.743275 q -0.28865,0 -0.505138,0.09381 -0.209272,0.09381 -0.353597,0.267002 -0.144325,0.165974 -0.216488,0.389678 -0.06495,0.223704 -0.06495,0.476273 0,0.281434 0.07938,0.476273 0.07938,0.194839 0.238136,0.295867 0.158758,0.101027 0.375246,0.101027 0.331948,0 0.577301,-0.137109 0.245353,-0.137109 0.360813,-0.331948 0.122676,-0.194839 0.07938,-0.360813 l 0.46184,0.786573 q -0.0866,0.267001 -0.238136,0.555652 -0.144326,0.28865 -0.36803,0.534003 -0.223704,0.245353 -0.555652,0.404111 -0.324731,0.151541 -0.772139,0.151541 -0.627815,0 -1.147386,-0.28865 -0.51957,-0.288651 -0.822653,-0.808221 -0.295867,-0.519571 -0.295867,-1.233981 0,-0.591733 0.187623,-1.068006 0.194839,-0.48349 0.5773,-0.815438 0.382462,-0.339164 0.966979,-0.51957 0.584517,-0.180407 1.37109,-0.180407 z m 5.296735,-1.298927 v 6.068875 h -2.020553 v -7.807993 h 1.905093 z m 1.840146,-1.796848 -0.02887,2.013336 q -0.137109,-0.02886 -0.331948,-0.0433 -0.187622,-0.01443 -0.331947,-0.01443 -0.339165,0 -0.577301,0.108244 -0.238137,0.101028 -0.396895,0.310299 -0.151541,0.202055 -0.23092,0.505138 -0.07938,0.303083 -0.09381,0.685545 l -0.382462,-0.144325 q 0,-0.764924 0.11546,-1.399955 0.122677,-0.642247 0.360813,-1.111304 0.238137,-0.476273 0.570085,-0.736058 0.339164,-0.259786 0.764923,-0.259786 0.144325,0 0.303083,0.02887 0.165974,0.02165 0.259785,0.05773 z m 4.676138,6.141037 v -9.359489 h 2.027769 V 65.58696 l -1.83293,0.0072 z m -4.048322,-1.90509 V 61.43761 q 0,-0.952546 0.158758,-1.666956 0.165974,-0.714409 0.490705,-1.190682 0.324732,-0.476274 0.793789,-0.707194 0.476273,-0.238137 1.089655,-0.238137 0.555652,0 0.974195,0.281435 0.42576,0.274218 0.721626,0.772139 0.295867,0.497922 0.476273,1.176251 0.180407,0.678328 0.252569,1.486549 v 0.750491 q -0.0866,0.764924 -0.267001,1.42882 -0.17319,0.663896 -0.476273,1.154601 -0.295867,0.490706 -0.71441,0.77214 -0.418543,0.274218 -0.974195,0.274218 -0.613382,0 -1.089655,-0.245353 -0.469057,-0.245353 -0.793789,-0.721626 -0.317515,-0.483489 -0.483489,-1.183466 -0.158758,-0.707194 -0.158758,-1.623659 z m 2.020553,-0.519571 v 0.519571 q 0,0.548436 0.05051,0.94533 0.05773,0.389678 0.180407,0.642247 0.129893,0.245353 0.339164,0.36803 0.209272,0.11546 0.519571,0.11546 0.40411,0 0.65668,-0.202056 0.252569,-0.209271 0.375245,-0.570084 0.129893,-0.368029 0.144325,-0.844302 v -1.363874 q -0.01443,-0.396894 -0.09381,-0.714409 -0.07938,-0.317516 -0.223704,-0.54122 -0.144325,-0.223704 -0.360813,-0.34638 -0.209272,-0.122677 -0.490706,-0.122677 -0.303083,0 -0.519571,0.122677 -0.209271,0.122676 -0.331948,0.382461 -0.122676,0.25257 -0.187622,0.65668 -0.05773,0.396894 -0.05773,0.952546 z"
       id="text31"
       style="font-weight:bold;font-size:14.7789px;line-height:1.25;font-family:'Roboto Condensed';-inkscape-font-specification:'Roboto Condensed,  Bold';fill:#f59300;stroke-width:0.369474"
       transform="scale(0.84314618,1.186034)"
       aria-label="dashboard" />
    <ellipse
       style="fill:none;fill-rule:evenodd;stroke:#ffad33;stroke-width:6.49713;stroke-linejoin:round;stroke-dasharray:none;stroke-opacity:1"
       id="path1-4-1"
       cx="50.956814"
       cy="51.101097"
       rx="47.091576"
       ry="47.2272" />
    <path
       id="rect2-0-2"
       style="fill:url(#linearGradient3-1-3);fill-opacity:1;fill-rule:evenodd;stroke:none;stroke-width:0.318106;stroke-linejoin:round;stroke-dasharray:none;stroke-opacity:1;filter:url(#filter3-9-6)"
       d="m 29.048648,0.82686152 c -4.5125,0 -8.51009,0.85807848 -11.991958,2.57346268 C 13.574822,5.1157084 10.650258,7.5168482 8.282588,10.60454 5.9427727,13.692231 4.1599074,17.38832 2.9342899,21.692375 1.7365273,25.99643 1.137551,30.737709 1.137551,35.915051 c 0,5.270908 0.5294808,10.07401 1.5879687,14.409254 1.0584879,4.335243 2.6742353,8.046171 4.8469209,11.133863 1.8061717,2.534332 4.0031674,4.58799 6.5787274,6.176803 H 0.09041229 V 101.84123 H 101.76561 V 67.634971 H 84.528919 c 3.32242,-1.454208 6.15595,-3.508169 8.488071,-6.176803 2.5348,-2.931748 4.470717,-6.565192 5.807757,-10.900435 1.337033,-4.366433 2.005513,-9.434131 2.005513,-15.20406 0,-5.48923 -0.66848,-10.323654 -2.005513,-14.502954 C 97.51556,16.671419 95.649139,13.178104 93.22576,10.371112 90.80238,7.5329308 87.863753,5.3963873 84.409739,3.9617023 80.955727,2.5270174 77.09795,1.8098897 72.836144,1.8098897 H 55.830413 V 67.634971 H 42.710768 v -6.831882 c -2.172686,0.717343 -4.372524,1.356987 -6.60092,1.918385 -2.228395,0.53021 -4.58211,0.795628 -7.0612,0.795628 -3.286883,0 -6.156015,-0.608321 -8.60725,-1.824684 -2.451236,-1.216364 -4.498841,-2.994343 -6.142283,-5.333504 -1.643441,-2.33916 -2.882763,-5.208492 -3.718411,-8.608072 C 9.7729105,44.320073 9.3683575,40.40555 9.3683575,36.007929 c 0,-4.272866 0.4599856,-8.109083 1.3791985,-11.508663 0.947069,-3.399579 2.269948,-6.284573 3.9691,-8.654922 1.727006,-2.37035 3.802739,-4.17883 6.226119,-5.426382 2.42338,-1.2787409 5.125394,-1.9183845 8.105873,-1.9183845 2.618365,0 4.958016,0.3585638 7.019282,1.0759063 2.061265,0.7173422 3.969058,1.5754212 5.72392,2.5734622 L 45.050802,4.8502086 C 42.850261,3.5402788 40.384861,2.5428934 37.655076,1.8567397 34.925292,1.170586 32.056982,0.82686152 29.048648,0.82686152 Z M 63.602583,9.2483557 h 8.397658 c 3.259028,0 6.170351,0.5300149 8.733006,1.5904343 2.562655,1.02923 4.721124,2.620097 6.475986,4.772125 1.754861,2.152028 3.091805,4.896071 4.011018,8.233273 0.919213,3.306013 1.379198,7.236198 1.379198,11.789763 0,8.951187 -1.866424,15.70372 -5.598986,20.257285 -3.732563,4.553565 -9.275582,6.830238 -16.629287,6.830238 H 63.602583 Z M 52.725984,71.835033 c 0.426404,0 0.824363,0.03648 1.19262,0.109317 0.387641,0.06243 0.716612,0.165838 0.98796,0.311511 0.290731,0.145673 0.513994,0.333287 0.669051,0.5622 0.174438,0.218509 0.261374,0.484299 0.261374,0.79645 0,0.603504 -0.3102,1.05608 -0.930425,1.357829 -0.600843,0.291344 -1.327771,0.436445 -2.18058,0.436445 -0.872191,0 -1.608504,-0.145101 -2.209348,-0.436445 -0.581461,-0.291345 -0.872067,-0.743921 -0.872067,-1.357829 0,-0.624307 0.290606,-1.07771 0.872067,-1.35865 0.600844,-0.280939 1.337157,-0.420828 2.209348,-0.420828 z M 1.0052203,78.249374 h 5.4658341 l 5.7855646,9.536854 c 0.213203,0.34337 0.464623,0.785522 0.755354,1.326595 0.290731,0.541066 0.582159,1.092664 0.87289,1.654544 0.290729,0.561882 0.552358,1.092633 0.784943,1.592079 0.251965,0.499449 0.416451,0.879063 0.49398,1.139195 h 0.203838 c 0.09691,-0.260132 0.261395,-0.639746 0.49398,-1.139195 0.232585,-0.499446 0.494212,-1.030197 0.784943,-1.592079 0.290731,-0.56188 0.581337,-1.113478 0.872068,-1.654544 0.290731,-0.541073 0.542974,-0.983225 0.756175,-1.326595 l 5.785565,-9.536854 h 5.465834 l -10.9029,17.13724 h -6.71599 z m 49.0462037,0 h 5.291585 v 17.13724 h -5.291585 z m 29.16043,0 h 20.002488 v 2.279212 L 83.97987,93.248774 h 15.757219 v 2.13784 H 78.252662 v -1.95044 L 93.835632,80.388036 H 79.211854 Z"
       transform="matrix(0.5034542,0,0,0.5034542,24.168801,13.224868)" />
  </g>
</svg>
