<?xml version="1.0" encoding="UTF-8" standalone="no"?>
<!-- Created with Inkscape (http://www.inkscape.org/) -->

<svg
   width="64.169968mm"
   height="63.754501mm"
   viewBox="0 0 102.06436 101.40355"
   version="1.1"
   id="svg1"
   xmlns:xlink="http://www.w3.org/1999/xlink"
   xmlns="http://www.w3.org/2000/svg"
   xmlns:svg="http://www.w3.org/2000/svg">
  <defs
     id="defs1">
    <linearGradient
       xlink:href="#linearGradient1-9"
       id="linearGradient3-2"
       x1="71.317589"
       y1="97.420563"
       x2="49.903812"
       y2="15.56449"
       gradientUnits="userSpaceOnUse"
       gradientTransform="translate(0.1041723,-0.63227359)" />
    <linearGradient
       id="linearGradient1-9">
      <stop
         style="stop-color:#f39208;stop-opacity:1;"
         offset="0.08606797"
         id="stop1-1" />
      <stop
         style="stop-color:#f3d008;stop-opacity:1;"
         offset="1"
         id="stop2-2" />
    </linearGradient>
    <filter
       style="color-interpolation-filters:sRGB"
       id="filter3-7"
       x="-0.0019137605"
       y="-0.0019262801"
       width="1.0038275"
       height="1.0038526">
      <feGaussianBlur
         stdDeviation="0.081075826"
         id="feGaussianBlur3-0" />
    </filter>
  </defs>
  <path
     id="cdviz"
     style="fill:url(#linearGradient3-2);fill-opacity:1;fill-rule:evenodd;stroke:none;stroke-width:0.318106;stroke-linejoin:round;stroke-dasharray:none;stroke-opacity:1;filter:url(#filter3-7)"
     d="m 29.152822,0.19458641 c -4.5125,0 -8.51009,0.85807999 -11.99196,2.57345999 -3.48187,1.71539 -6.40643,4.11653 -8.7740996,7.20422 -2.33982,3.0876896 -4.12268,6.7837796 -5.3483,11.0878296 -1.1977601,4.30406 -1.7967401,9.04534 -1.7967401,14.22268 0,5.27091 0.52948,10.07401 1.58797,14.40926 1.0584901,4.33524 2.6742301,8.04617 4.8469201,11.13386 1.80617,2.53433 4.0031696,4.58799 6.5787296,6.1768 H 0.1945823 V 101.20896 H 101.86978 V 67.002696 H 84.633092 c 3.32242,-1.45421 6.15595,-3.50817 8.488068,-6.1768 2.5348,-2.93175 4.47072,-6.56519 5.80776,-10.90044 1.33703,-4.36643 2.00551,-9.43413 2.00551,-15.20406 0,-5.48923 -0.66848,-10.32365 -2.00551,-14.50295 -1.30919,-4.1793 -3.17561,-7.67262 -5.59899,-10.4796096 -2.423378,-2.83818 -5.362008,-4.97472 -8.816018,-6.40941 -3.45401,-1.43468 -7.31179,-2.15181 -11.5736,-2.15181 H 55.934582 V 67.002696 h -13.11964 v -6.83188 c -2.17269,0.71734 -4.37253,1.35699 -6.60092,1.91838 -2.2284,0.53021 -4.58211,0.79563 -7.0612,0.79563 -3.28689,0 -6.15602,-0.60832 -8.60725,-1.82468 -2.45124,-1.21637 -4.49884,-2.99434 -6.14229,-5.33351 -1.64344,-2.33916 -2.88276,-5.20849 -3.71841,-8.60807 -0.8077896,-3.43077 -1.2123396,-7.34529 -1.2123396,-11.74291 0,-4.27287 0.45998,-8.10908 1.3791996,-11.50866 0.94706,-3.39958 2.26994,-6.28458 3.9691,-8.65493 1.727,-2.37035 3.80273,-4.17883 6.22612,-5.4263796 2.42337,-1.27874 5.12539,-1.91838 8.10587,-1.91838 2.61836,0 4.95801,0.35856 7.01928,1.0759 2.06127,0.71735 3.96906,1.5754296 5.72392,2.5734696 l 3.25895,-7.2987396 c -2.20054,-1.30993 -4.66594,-2.30732 -7.39572,-2.99347 -2.72979,-0.68614999 -5.5981,-1.02987999 -8.60643,-1.02987999 z m 34.55393,8.42149999 h 8.39766 c 3.25903,0 6.17035,0.53001 8.73301,1.5904296 2.56265,1.02923 4.72112,2.6201 6.47598,4.77212 1.75486,2.15203 3.09181,4.89608 4.01102,8.23328 0.91921,3.30601 1.3792,7.2362 1.3792,11.78976 0,8.95119 -1.86642,15.70372 -5.59899,20.25729 -3.73256,4.55356 -9.27558,6.83023 -16.62928,6.83023 h -6.7686 z m -10.8766,62.5866696 c 0.42641,0 0.82437,0.0365 1.19262,0.10932 0.38765,0.0624 0.71662,0.16584 0.98796,0.31151 0.29074,0.14567 0.514,0.33329 0.66905,0.5622 0.17444,0.21851 0.26138,0.4843 0.26138,0.79645 0,0.60351 -0.3102,1.05608 -0.93043,1.35783 -0.60084,0.29134 -1.32777,0.43645 -2.18058,0.43645 -0.87219,0 -1.6085,-0.14511 -2.20934,-0.43645 -0.58147,-0.29134 -0.87207,-0.74392 -0.87207,-1.35783 0,-0.62431 0.2906,-1.07771 0.87207,-1.35865 0.60084,-0.28094 1.33715,-0.42083 2.20934,-0.42083 z m -51.7207597,6.41434 h 5.4658301 l 5.7855696,9.53686 c 0.2132,0.34337 0.46462,0.78552 0.75535,1.32659 0.29073,0.54107 0.58216,1.09267 0.87289,1.65455 0.29073,0.56188 0.55236,1.09263 0.78495,1.59208 0.25196,0.49945 0.41645,0.87906 0.49398,1.13919 h 0.20383 c 0.0969,-0.26013 0.2614,-0.63974 0.49398,-1.13919 0.23259,-0.49945 0.49422,-1.0302 0.78495,-1.59208 0.29073,-0.56188 0.58133,-1.11348 0.87207,-1.65455 0.29073,-0.54107 0.54297,-0.98322 0.75617,-1.32659 l 5.78556,-9.53686 h 5.46584 l -10.9029,17.13724 h -6.71599 z m 49.0461997,0 h 5.29159 v 17.13724 h -5.29159 z m 29.16043,0 H 99.31851 v 2.27922 L 84.084042,92.616496 H 99.84126 v 2.13784 H 78.356832 v -1.95044 L 93.9398,79.755766 H 79.316022 Z" />
</svg>
